<svg xmlns="http://www.w3.org/2000/svg" xmlns:xlink="http://www.w3.org/1999/xlink" width="1920" zoomAndPan="magnify" viewBox="0 0 1440 809.999993" height="1080" preserveAspectRatio="xMidYMid meet" version="1.0"><defs><g/><clipPath id="cf9f37c13b"><rect x="0" width="772" y="0" height="519"/></clipPath><clipPath id="578c7efed7"><rect x="0" width="1144" y="0" height="473"/></clipPath></defs><rect x="-144" width="1728" fill="#ffffff" y="-80.999999" height="971.999992" fill-opacity="1"/><rect x="-144" width="1728" fill="#ffffff" y="-80.999999" height="971.999992" fill-opacity="1"/><g transform="matrix(1, 0, 0, 1, 424, 0.000000000000039746)"><g clip-path="url(#cf9f37c13b)"><g fill="#000000" fill-opacity="1"><g transform="translate(60.676575, 374.842369)"><g><path d="M 31.671875 -283.140625 L 31.671875 -290.796875 C 31.804688 -292.316406 32.457031 -293.523438 33.625 -294.421875 C 34.800781 -295.316406 36.148438 -296.078125 37.671875 -296.703125 C 39.191406 -297.328125 40.707031 -297.878906 42.21875 -298.359375 C 43.738281 -298.835938 44.984375 -299.285156 45.953125 -299.703125 C 46.085938 -299.703125 46.460938 -299.835938 47.078125 -300.109375 C 47.703125 -300.390625 48.320312 -300.738281 48.9375 -301.15625 C 49.5625 -301.570312 50.148438 -301.914062 50.703125 -302.1875 C 51.253906 -302.46875 51.53125 -302.609375 51.53125 -302.609375 C 51.8125 -302.609375 52.847656 -302.675781 54.640625 -302.8125 C 56.429688 -302.945312 57.8125 -303.015625 58.78125 -303.015625 C 59.46875 -303.015625 60.742188 -302.945312 62.609375 -302.8125 C 64.472656 -302.675781 65.613281 -302.609375 66.03125 -302.609375 C 66.300781 -302.328125 66.710938 -301.910156 67.265625 -301.359375 C 67.816406 -300.804688 68.398438 -300.21875 69.015625 -299.59375 C 69.640625 -298.976562 70.191406 -298.394531 70.671875 -297.84375 C 71.160156 -297.289062 71.472656 -296.945312 71.609375 -296.8125 C 72.023438 -296.8125 72.851562 -296.632812 74.09375 -296.28125 C 75.332031 -295.9375 76.09375 -295.628906 76.375 -295.359375 C 76.375 -295.359375 76.648438 -295.082031 77.203125 -294.53125 C 77.335938 -294.25 77.546875 -294.039062 77.828125 -293.90625 L 77.828125 -273.828125 C 77.828125 -273.828125 77.648438 -273.484375 77.296875 -272.796875 C 76.953125 -272.109375 76.503906 -271.28125 75.953125 -270.3125 C 75.410156 -269.34375 74.894531 -268.410156 74.40625 -267.515625 C 73.925781 -266.617188 73.476562 -265.894531 73.0625 -265.34375 C 72.375 -264.101562 70.890625 -262.929688 68.609375 -261.828125 C 66.335938 -260.722656 63.785156 -259.789062 60.953125 -259.03125 C 58.128906 -258.269531 55.367188 -257.648438 52.671875 -257.171875 C 49.984375 -256.691406 47.945312 -256.453125 46.5625 -256.453125 C 46.289062 -256.453125 45.632812 -256.453125 44.59375 -256.453125 C 43.5625 -256.453125 43.046875 -256.519531 43.046875 -256.65625 C 42.910156 -256.65625 42.597656 -256.894531 42.109375 -257.375 C 41.628906 -257.851562 41.078125 -258.40625 40.453125 -259.03125 C 39.835938 -259.65625 39.253906 -260.242188 38.703125 -260.796875 C 38.148438 -261.347656 37.664062 -261.757812 37.25 -262.03125 C 34.488281 -265.476562 32.867188 -268.789062 32.390625 -271.96875 C 31.910156 -275.144531 31.671875 -278.867188 31.671875 -283.140625 Z M -54.4375 107 C -54.4375 105.070312 -54.363281 103.585938 -54.21875 102.546875 C -54.082031 101.515625 -53.671875 99.894531 -52.984375 97.6875 C -52.847656 97 -52.535156 96.035156 -52.046875 94.796875 C -51.566406 93.554688 -51.082031 92.3125 -50.59375 91.0625 C -50.113281 89.820312 -49.703125 88.71875 -49.359375 87.75 C -49.015625 86.789062 -48.773438 86.171875 -48.640625 85.890625 C -47.953125 84.515625 -46.847656 83.445312 -45.328125 82.6875 C -43.804688 81.925781 -42.148438 81.375 -40.359375 81.03125 C -38.566406 80.6875 -36.703125 80.476562 -34.765625 80.40625 C -32.835938 80.34375 -31.113281 80.3125 -29.59375 80.3125 L -27.53125 80.3125 C -23.382812 80.3125 -20.207031 81.273438 -18 83.203125 C -15.800781 85.140625 -13.800781 87.242188 -12 89.515625 C -10.207031 91.796875 -8.207031 93.898438 -6 95.828125 C -3.789062 97.765625 -0.550781 98.734375 3.71875 98.734375 C 5.375 98.734375 7.304688 98.660156 9.515625 98.515625 C 11.722656 98.378906 13.828125 98 15.828125 97.375 C 17.828125 96.757812 19.515625 95.796875 20.890625 94.484375 C 22.273438 93.171875 22.96875 91.410156 22.96875 89.203125 L 22.96875 85.890625 C 22.96875 85.753906 22.898438 85.410156 22.765625 84.859375 C 22.628906 84.304688 22.457031 83.71875 22.25 83.09375 C 22.039062 82.476562 21.867188 81.894531 21.734375 81.34375 C 21.597656 80.789062 21.53125 80.445312 21.53125 80.3125 C 21.53125 80.164062 21.769531 79.75 22.25 79.0625 C 22.726562 78.375 23.207031 77.613281 23.6875 76.78125 C 24.175781 75.957031 24.660156 75.164062 25.140625 74.40625 C 25.628906 73.644531 25.875 73.195312 25.875 73.0625 C 26.007812 72.925781 26.144531 72.6875 26.28125 72.34375 C 26.425781 72 26.632812 71.6875 26.90625 71.40625 L 27.734375 70.171875 C 27.734375 70.023438 27.765625 69.398438 27.828125 68.296875 C 27.898438 67.191406 27.972656 66.019531 28.046875 64.78125 C 28.117188 63.539062 28.222656 62.332031 28.359375 61.15625 C 28.492188 59.988281 28.628906 59.195312 28.765625 58.78125 C 28.765625 58.507812 28.898438 57.890625 29.171875 56.921875 C 29.453125 55.953125 29.800781 54.878906 30.21875 53.703125 C 30.632812 52.535156 30.976562 51.46875 31.25 50.5 C 31.53125 49.53125 31.671875 48.910156 31.671875 48.640625 L 31.671875 46.984375 C 31.671875 43.671875 31.425781 40.359375 30.9375 37.046875 C 30.457031 33.734375 30.21875 30.421875 30.21875 27.109375 C 30.21875 22.285156 30.523438 17.007812 31.140625 11.28125 C 31.765625 5.550781 32.351562 0.34375 32.90625 -4.34375 C 33.039062 -4.476562 33.210938 -4.820312 33.421875 -5.375 C 33.628906 -5.925781 33.835938 -6.515625 34.046875 -7.140625 C 34.253906 -7.765625 34.425781 -8.316406 34.5625 -8.796875 C 34.695312 -9.273438 34.765625 -9.585938 34.765625 -9.734375 L 34.765625 -15.109375 C 34.765625 -17.179688 34.453125 -19.144531 33.828125 -21 C 33.210938 -22.863281 32.90625 -24.695312 32.90625 -26.5 L 32.90625 -27.109375 C 33.039062 -27.253906 33.210938 -27.671875 33.421875 -28.359375 C 33.628906 -29.046875 33.835938 -29.800781 34.046875 -30.625 C 34.253906 -31.457031 34.425781 -32.253906 34.5625 -33.015625 C 34.695312 -33.773438 34.765625 -34.222656 34.765625 -34.359375 C 34.765625 -34.773438 34.695312 -35.707031 34.5625 -37.15625 C 34.425781 -38.601562 34.359375 -40.085938 34.359375 -41.609375 C 34.359375 -43.265625 34.492188 -44.226562 34.765625 -44.5 C 34.765625 -44.632812 34.898438 -45.113281 35.171875 -45.9375 C 35.453125 -46.769531 35.726562 -47.703125 36 -48.734375 C 36.28125 -49.773438 36.554688 -50.742188 36.828125 -51.640625 C 37.109375 -52.535156 37.25 -53.125 37.25 -53.40625 C 37.25 -54.507812 37.320312 -55.539062 37.46875 -56.5 C 37.46875 -57.332031 37.5 -58.160156 37.5625 -58.984375 C 37.632812 -59.816406 37.671875 -60.578125 37.671875 -61.265625 C 37.671875 -65.546875 37.1875 -69.613281 36.21875 -73.46875 C 35.25 -77.332031 34.765625 -81.128906 34.765625 -84.859375 C 34.765625 -91.484375 34.9375 -97.96875 35.28125 -104.3125 C 35.632812 -110.664062 35.8125 -117.082031 35.8125 -123.5625 L 35.8125 -140.328125 C 35.8125 -140.878906 35.632812 -141.878906 35.28125 -143.328125 C 34.9375 -144.773438 34.765625 -145.847656 34.765625 -146.546875 C 34.210938 -147.097656 33.59375 -148.128906 32.90625 -149.640625 C 32.21875 -151.160156 31.804688 -151.988281 31.671875 -152.125 C 31.523438 -152.257812 31.039062 -152.363281 30.21875 -152.4375 C 29.394531 -152.507812 28.5 -152.613281 27.53125 -152.75 C 26.5625 -152.882812 25.628906 -153.019531 24.734375 -153.15625 C 23.835938 -153.300781 23.25 -153.441406 22.96875 -153.578125 C 22.832031 -153.710938 22.28125 -153.988281 21.3125 -154.40625 C 20.351562 -154.820312 19.25 -155.335938 18 -155.953125 C 16.757812 -156.578125 15.519531 -157.195312 14.28125 -157.8125 C 13.039062 -158.4375 12.144531 -158.957031 11.59375 -159.375 C 10.90625 -159.644531 10.078125 -160.054688 9.109375 -160.609375 C 8.140625 -161.160156 7.519531 -161.578125 7.25 -161.859375 L 7.25 -162.890625 C 7.25 -163.859375 7.726562 -165.066406 8.6875 -166.515625 C 9.65625 -167.960938 10.625 -168.820312 11.59375 -169.09375 C 14.90625 -170.195312 18.457031 -170.921875 22.25 -171.265625 C 26.039062 -171.617188 29.800781 -172.101562 33.53125 -172.71875 C 37.257812 -173.34375 40.8125 -174.3125 44.1875 -175.625 C 47.570312 -176.9375 50.503906 -179.175781 52.984375 -182.34375 C 55.609375 -183.445312 58.226562 -184 60.84375 -184 C 63.332031 -184 66.09375 -183.445312 69.125 -182.34375 C 69.40625 -182.34375 70.234375 -181.722656 71.609375 -180.484375 C 72.992188 -179.242188 73.960938 -178.28125 74.515625 -177.59375 C 75.472656 -176.894531 76.019531 -175.992188 76.15625 -174.890625 C 76.300781 -173.785156 76.375 -172.679688 76.375 -171.578125 C 76.375 -168.128906 76.0625 -164.644531 75.4375 -161.125 C 74.820312 -157.613281 74.03125 -154.0625 73.0625 -150.46875 C 73.0625 -148.8125 73.128906 -145.84375 73.265625 -141.5625 C 73.410156 -137.289062 73.484375 -132.8125 73.484375 -128.125 C 73.484375 -123.425781 73.410156 -118.972656 73.265625 -114.765625 C 73.128906 -110.554688 73.0625 -107.625 73.0625 -105.96875 C 73.0625 -105.5625 72.992188 -104.425781 72.859375 -102.5625 C 72.722656 -100.695312 72.550781 -98.726562 72.34375 -96.65625 C 72.132812 -94.582031 71.957031 -92.648438 71.8125 -90.859375 C 71.675781 -89.066406 71.609375 -87.894531 71.609375 -87.34375 L 71.609375 -46.15625 C 71.609375 -45.050781 71.570312 -43.328125 71.5 -40.984375 C 71.4375 -38.640625 71.335938 -36.15625 71.203125 -33.53125 C 71.066406 -30.90625 70.960938 -28.453125 70.890625 -26.171875 C 70.816406 -23.898438 70.710938 -22.351562 70.578125 -21.53125 C 70.578125 -21.25 70.332031 -20.488281 69.84375 -19.25 C 69.363281 -18.007812 69.125 -17.179688 69.125 -16.765625 C 68.988281 -15.929688 68.921875 -15.242188 68.921875 -14.703125 C 68.785156 -14.148438 68.71875 -13.5625 68.71875 -12.9375 C 68.71875 -12.3125 68.71875 -11.796875 68.71875 -11.390625 C 68.71875 -7.378906 69.023438 -3.171875 69.640625 1.234375 C 70.265625 5.648438 70.578125 10 70.578125 14.28125 C 70.578125 17.039062 70.265625 19.660156 69.640625 22.140625 C 69.023438 24.628906 68.71875 27.253906 68.71875 30.015625 C 68.71875 32.773438 69.023438 35.460938 69.640625 38.078125 C 70.265625 40.703125 70.578125 43.253906 70.578125 45.734375 C 70.578125 48.492188 70.265625 51.941406 69.640625 56.078125 C 69.023438 60.222656 68.128906 64.4375 66.953125 68.71875 C 65.785156 73 64.375 77.101562 62.71875 81.03125 C 61.0625 84.96875 59.265625 88.175781 57.328125 90.65625 C 57.191406 90.789062 56.707031 91.203125 55.875 91.890625 C 55.050781 92.585938 54.191406 93.3125 53.296875 94.0625 C 52.398438 94.820312 51.503906 95.546875 50.609375 96.234375 C 49.710938 96.929688 49.191406 97.414062 49.046875 97.6875 C 45.878906 100.445312 43.46875 103.484375 41.8125 106.796875 C 40.15625 110.109375 38.15625 113.285156 35.8125 116.328125 C 33.738281 119.222656 31.21875 121.632812 28.25 123.5625 C 25.28125 125.5 22.691406 127.847656 20.484375 130.609375 C 19.660156 130.609375 18.144531 130.675781 15.9375 130.8125 C 13.726562 130.945312 11.378906 131.082031 8.890625 131.21875 C 6.410156 131.363281 4.066406 131.535156 1.859375 131.734375 C -0.347656 131.941406 -1.929688 132.046875 -2.890625 132.046875 C -3.171875 132.046875 -3.863281 132.285156 -4.96875 132.765625 C -6.070312 133.253906 -6.757812 133.5 -7.03125 133.5 L -9.9375 133.5 C -18.625 133.5 -26.554688 131.671875 -33.734375 128.015625 C -40.910156 124.359375 -47.328125 119.425781 -52.984375 113.21875 C -53.671875 112.53125 -54.082031 111.804688 -54.21875 111.046875 C -54.363281 110.285156 -54.4375 109.5625 -54.4375 108.875 Z M -54.4375 107 "/></g></g></g><g fill="#000000" fill-opacity="1"><g transform="translate(183.911819, 374.842369)"><g><path d="M 54.234375 -86.3125 C 54.234375 -79.132812 55.472656 -72.40625 57.953125 -66.125 C 60.429688 -59.851562 63.46875 -53.539062 67.0625 -47.1875 C 68.03125 -45.53125 68.789062 -43.910156 69.34375 -42.328125 C 69.894531 -40.742188 70.515625 -39.222656 71.203125 -37.765625 C 71.890625 -36.316406 72.75 -34.972656 73.78125 -33.734375 C 74.820312 -32.492188 76.304688 -31.390625 78.234375 -30.421875 C 78.515625 -30.285156 79.03125 -30.078125 79.78125 -29.796875 C 80.539062 -29.523438 81.300781 -29.179688 82.0625 -28.765625 C 82.820312 -28.359375 83.546875 -28.015625 84.234375 -27.734375 C 84.929688 -27.460938 85.28125 -27.253906 85.28125 -27.109375 C 86.65625 -26.285156 87.828125 -25.320312 88.796875 -24.21875 C 89.765625 -23.113281 90.765625 -22.078125 91.796875 -21.109375 C 92.828125 -20.140625 93.925781 -19.3125 95.09375 -18.625 C 96.269531 -17.9375 97.6875 -17.59375 99.34375 -17.59375 C 103.488281 -17.59375 107.390625 -18.488281 111.046875 -20.28125 C 114.703125 -22.070312 118.148438 -24.347656 121.390625 -27.109375 C 124.628906 -29.867188 127.695312 -32.800781 130.59375 -35.90625 C 133.5 -39.007812 136.191406 -41.941406 138.671875 -44.703125 C 139.640625 -48.148438 140.8125 -50.875 142.1875 -52.875 C 143.570312 -54.882812 144.816406 -57.40625 145.921875 -60.4375 C 147.441406 -64.4375 148.335938 -68.195312 148.609375 -71.71875 C 148.890625 -75.238281 149.03125 -79 149.03125 -83 C 149.03125 -90.03125 148.375 -97.238281 147.0625 -104.625 C 145.75 -112.007812 143.78125 -119.1875 141.15625 -126.15625 C 138.53125 -133.125 135.21875 -139.742188 131.21875 -146.015625 C 127.21875 -152.296875 122.53125 -157.785156 117.15625 -162.484375 C 116.457031 -162.484375 115.070312 -162.550781 113 -162.6875 C 110.9375 -162.820312 109.5625 -162.890625 108.875 -162.890625 C 102.382812 -162.890625 96.171875 -161.851562 90.234375 -159.78125 C 84.304688 -157.71875 79.476562 -153.859375 75.75 -148.203125 C 75.0625 -147.503906 74.164062 -146.394531 73.0625 -144.875 C 71.957031 -143.363281 71.269531 -142.46875 71 -142.1875 C 70.71875 -142.1875 69.988281 -141.804688 68.8125 -141.046875 C 67.644531 -140.296875 67.0625 -139.847656 67.0625 -139.703125 C 66.507812 -139.148438 65.882812 -138.359375 65.1875 -137.328125 C 64.5 -136.296875 64.019531 -135.503906 63.75 -134.953125 C 63.75 -134.816406 63.710938 -134.265625 63.640625 -133.296875 C 63.578125 -132.328125 63.472656 -131.289062 63.328125 -130.1875 C 63.191406 -129.082031 63.054688 -128.007812 62.921875 -126.96875 C 62.785156 -125.9375 62.644531 -125.351562 62.5 -125.21875 C 62.5 -124.664062 62.050781 -123.664062 61.15625 -122.21875 C 60.257812 -120.769531 59.8125 -119.910156 59.8125 -119.640625 C 58.988281 -117.835938 58.40625 -115.898438 58.0625 -113.828125 C 57.71875 -111.765625 57.269531 -109.765625 56.71875 -107.828125 C 56.570312 -106.867188 56.359375 -105.421875 56.078125 -103.484375 C 55.804688 -101.554688 55.53125 -99.625 55.25 -97.6875 C 54.976562 -95.757812 54.738281 -94 54.53125 -92.40625 C 54.332031 -90.820312 54.234375 -89.828125 54.234375 -89.421875 Z M 81.34375 1.453125 C 79.957031 0.617188 78.398438 0 76.671875 -0.40625 C 74.953125 -0.820312 73.226562 -1.203125 71.5 -1.546875 C 69.78125 -1.890625 68.125 -2.269531 66.53125 -2.6875 C 64.945312 -3.101562 63.601562 -3.65625 62.5 -4.34375 C 61.945312 -4.757812 60.984375 -5.484375 59.609375 -6.515625 C 58.234375 -7.554688 56.785156 -8.695312 55.265625 -9.9375 C 53.742188 -11.175781 52.289062 -12.378906 50.90625 -13.546875 C 49.53125 -14.722656 48.566406 -15.585938 48.015625 -16.140625 C 47.191406 -16.972656 45.953125 -18.179688 44.296875 -19.765625 C 42.640625 -21.347656 40.984375 -22.96875 39.328125 -24.625 C 37.671875 -26.28125 36.1875 -27.796875 34.875 -29.171875 C 33.5625 -30.554688 32.835938 -31.457031 32.703125 -31.875 C 32.566406 -31.875 32.148438 -32.457031 31.453125 -33.625 C 30.765625 -34.800781 29.9375 -36.21875 28.96875 -37.875 C 28.007812 -39.53125 27.046875 -41.21875 26.078125 -42.9375 C 25.109375 -44.664062 24.347656 -46.082031 23.796875 -47.1875 C 23.109375 -48.570312 22.242188 -50.265625 21.203125 -52.265625 C 20.171875 -54.265625 19.207031 -56.296875 18.3125 -58.359375 C 17.414062 -60.429688 16.65625 -62.46875 16.03125 -64.46875 C 15.414062 -66.46875 15.109375 -68.160156 15.109375 -69.546875 L 15.109375 -105.359375 C 16.210938 -108.390625 17.144531 -111.5625 17.90625 -114.875 C 18.664062 -118.1875 19.179688 -121.632812 19.453125 -125.21875 C 19.867188 -126.050781 20.59375 -127.5 21.625 -129.5625 C 22.664062 -131.632812 23.804688 -133.804688 25.046875 -136.078125 C 26.285156 -138.359375 27.457031 -140.5 28.5625 -142.5 C 29.664062 -144.5 30.425781 -145.914062 30.84375 -146.75 C 32.90625 -150.195312 35.210938 -153.226562 37.765625 -155.84375 C 40.328125 -158.46875 43.054688 -160.816406 45.953125 -162.890625 C 48.847656 -164.960938 51.914062 -166.859375 55.15625 -168.578125 C 58.40625 -170.304688 61.753906 -172.132812 65.203125 -174.0625 C 68.785156 -175.863281 72.816406 -177.175781 77.296875 -178 C 81.785156 -178.832031 86.03125 -179.867188 90.03125 -181.109375 C 91.550781 -181.796875 93 -182.519531 94.375 -183.28125 C 95.757812 -184.039062 97.414062 -184.421875 99.34375 -184.421875 C 99.488281 -184.421875 99.800781 -184.421875 100.28125 -184.421875 C 100.757812 -184.421875 101.140625 -184.28125 101.421875 -184 C 101.691406 -184 102.617188 -183.753906 104.203125 -183.265625 C 105.796875 -182.785156 106.800781 -182.546875 107.21875 -182.546875 L 117.15625 -182.546875 C 119.082031 -182.546875 120.703125 -182.164062 122.015625 -181.40625 C 123.328125 -180.65625 124.535156 -179.863281 125.640625 -179.03125 C 126.742188 -178.207031 127.847656 -177.414062 128.953125 -176.65625 C 130.054688 -175.894531 131.363281 -175.515625 132.875 -175.515625 L 145.921875 -175.515625 C 146.054688 -175.515625 146.429688 -175.304688 147.046875 -174.890625 C 147.671875 -174.484375 148.296875 -174.035156 148.921875 -173.546875 C 149.546875 -173.066406 150.128906 -172.617188 150.671875 -172.203125 C 151.222656 -171.785156 151.5 -171.578125 151.5 -171.578125 C 151.78125 -171.171875 152.332031 -170.828125 153.15625 -170.546875 C 153.988281 -170.273438 154.539062 -170 154.8125 -169.71875 C 155.09375 -169.71875 156.195312 -169.546875 158.125 -169.203125 C 160.0625 -168.859375 161.304688 -168.546875 161.859375 -168.265625 C 162.828125 -167.859375 163.550781 -167.273438 164.03125 -166.515625 C 164.507812 -165.753906 164.851562 -164.957031 165.0625 -164.125 C 165.269531 -163.300781 165.507812 -162.507812 165.78125 -161.75 C 166.0625 -160.988281 166.546875 -160.332031 167.234375 -159.78125 C 167.367188 -159.644531 167.75 -159.367188 168.375 -158.953125 C 169 -158.546875 169.617188 -158.097656 170.234375 -157.609375 C 170.859375 -157.128906 171.445312 -156.679688 172 -156.265625 C 172.550781 -155.847656 172.894531 -155.570312 173.03125 -155.4375 C 173.3125 -155.4375 173.625 -155.265625 173.96875 -154.921875 C 174.3125 -154.578125 174.484375 -154.265625 174.484375 -153.984375 C 175.304688 -153.160156 176.304688 -152.128906 177.484375 -150.890625 C 178.660156 -149.648438 179.796875 -148.40625 180.890625 -147.15625 C 181.992188 -145.914062 182.925781 -144.8125 183.6875 -143.84375 C 184.445312 -142.882812 184.828125 -142.332031 184.828125 -142.1875 C 184.960938 -142.050781 185.066406 -141.566406 185.140625 -140.734375 C 185.210938 -139.910156 185.316406 -139.015625 185.453125 -138.046875 C 185.585938 -137.085938 185.6875 -136.191406 185.75 -135.359375 C 185.820312 -134.535156 185.859375 -134.054688 185.859375 -133.921875 C 186.003906 -133.503906 186.316406 -132.640625 186.796875 -131.328125 C 187.273438 -130.015625 187.753906 -128.664062 188.234375 -127.28125 C 188.722656 -125.90625 189.175781 -124.5625 189.59375 -123.25 C 190.007812 -121.9375 190.351562 -121.078125 190.625 -120.671875 L 190.625 -79.0625 C 190.625 -78.644531 190.519531 -77.847656 190.3125 -76.671875 C 190.101562 -75.503906 189.828125 -74.160156 189.484375 -72.640625 C 189.140625 -71.128906 188.757812 -69.648438 188.34375 -68.203125 C 187.9375 -66.753906 187.59375 -65.613281 187.3125 -64.78125 C 187.3125 -64.507812 186.96875 -63.546875 186.28125 -61.890625 C 185.59375 -60.234375 185.109375 -59.265625 184.828125 -58.984375 C 184.003906 -56.640625 183.414062 -54.15625 183.0625 -51.53125 C 182.71875 -48.914062 181.789062 -46.640625 180.28125 -44.703125 C 180.28125 -44.566406 179.863281 -44.085938 179.03125 -43.265625 C 178.625 -42.847656 178.210938 -42.363281 177.796875 -41.8125 C 175.585938 -39.050781 173.6875 -35.804688 172.09375 -32.078125 C 170.507812 -28.359375 168.476562 -25.394531 166 -23.1875 C 163.375 -20.695312 160.4375 -18.660156 157.1875 -17.078125 C 153.945312 -15.492188 151.226562 -13.597656 149.03125 -11.390625 C 148.75 -11.390625 148.265625 -11.039062 147.578125 -10.34375 C 146.890625 -9.65625 146.164062 -8.894531 145.40625 -8.0625 C 144.644531 -7.238281 143.914062 -6.445312 143.21875 -5.6875 C 142.53125 -4.925781 142.117188 -4.476562 141.984375 -4.34375 C 141.566406 -4.207031 140.769531 -3.929688 139.59375 -3.515625 C 138.425781 -3.097656 137.148438 -2.648438 135.765625 -2.171875 C 134.390625 -1.691406 133.046875 -1.242188 131.734375 -0.828125 C 130.429688 -0.410156 129.429688 -0.132812 128.734375 0 C 128.460938 0 127.53125 0.101562 125.9375 0.3125 C 124.351562 0.519531 122.5625 0.796875 120.5625 1.140625 C 118.5625 1.484375 116.5625 1.828125 114.5625 2.171875 C 112.5625 2.515625 111.078125 2.753906 110.109375 2.890625 L 107.21875 2.890625 C 106.25 2.890625 104.519531 2.820312 102.03125 2.6875 C 99.550781 2.550781 96.929688 2.378906 94.171875 2.171875 C 91.410156 1.960938 88.820312 1.789062 86.40625 1.65625 C 84 1.519531 82.3125 1.453125 81.34375 1.453125 Z M 81.34375 1.453125 "/></g></g></g><g fill="#000000" fill-opacity="1"><g transform="translate(411.257453, 374.842369)"><g><path d="M 12.421875 -29.390625 L 12.421875 -34.359375 C 12.421875 -34.628906 12.832031 -35.523438 13.65625 -37.046875 C 14.488281 -38.566406 14.90625 -39.460938 14.90625 -39.734375 C 15.59375 -41.390625 16.210938 -43.21875 16.765625 -45.21875 C 17.316406 -47.21875 17.972656 -49.113281 18.734375 -50.90625 C 19.492188 -52.707031 20.492188 -54.226562 21.734375 -55.46875 C 22.972656 -56.707031 24.765625 -57.328125 27.109375 -57.328125 L 29.1875 -57.328125 C 29.601562 -57.328125 30.15625 -56.707031 30.84375 -55.46875 C 31.53125 -54.226562 32.082031 -53.265625 32.5 -52.578125 C 34.289062 -49.265625 36.253906 -45.503906 38.390625 -41.296875 C 40.535156 -37.085938 42.984375 -33.1875 45.734375 -29.59375 C 48.492188 -26.007812 51.738281 -22.972656 55.46875 -20.484375 C 59.195312 -18.003906 63.472656 -16.765625 68.296875 -16.765625 C 70.097656 -16.765625 72.375 -17.421875 75.125 -18.734375 C 77.882812 -20.046875 80.609375 -21.597656 83.296875 -23.390625 C 85.992188 -25.179688 88.410156 -27.078125 90.546875 -29.078125 C 92.691406 -31.078125 93.96875 -32.835938 94.375 -34.359375 C 94.925781 -36.148438 95.410156 -37.804688 95.828125 -39.328125 C 96.242188 -40.847656 96.453125 -42.4375 96.453125 -44.09375 C 96.453125 -46.84375 95.757812 -49.671875 94.375 -52.578125 C 94.375 -54.234375 92.957031 -56.507812 90.125 -59.40625 C 87.300781 -62.300781 84.023438 -65.160156 80.296875 -67.984375 C 76.578125 -70.816406 72.992188 -73.40625 69.546875 -75.75 C 66.097656 -78.09375 63.75 -79.613281 62.5 -80.3125 C 60.988281 -80.863281 59.4375 -81.171875 57.84375 -81.234375 C 56.257812 -81.304688 54.914062 -81.828125 53.8125 -82.796875 C 53.8125 -83.066406 53.5 -83.476562 52.875 -84.03125 C 52.257812 -84.582031 51.640625 -85.164062 51.015625 -85.78125 C 50.398438 -86.40625 49.78125 -86.992188 49.15625 -87.546875 C 48.53125 -88.097656 48.21875 -88.375 48.21875 -88.375 C 47.945312 -88.925781 47.050781 -89.71875 45.53125 -90.75 C 44.019531 -91.789062 42.988281 -92.585938 42.4375 -93.140625 L 39.53125 -94.59375 L 28.15625 -105.96875 C 27.1875 -108.3125 26.390625 -110.65625 25.765625 -113 C 25.148438 -115.351562 24.492188 -117.769531 23.796875 -120.25 C 23.660156 -120.9375 23.421875 -121.898438 23.078125 -123.140625 C 22.734375 -124.390625 22.421875 -125.597656 22.140625 -126.765625 C 21.867188 -127.941406 21.59375 -128.976562 21.3125 -129.875 C 21.039062 -130.769531 20.90625 -131.289062 20.90625 -131.4375 C 20.625 -135.15625 20.894531 -139.050781 21.71875 -143.125 C 22.550781 -147.195312 23.832031 -151.09375 25.5625 -154.8125 C 27.289062 -158.539062 29.328125 -162.023438 31.671875 -165.265625 C 34.015625 -168.515625 36.632812 -171.171875 39.53125 -173.234375 C 39.8125 -173.515625 40.570312 -173.828125 41.8125 -174.171875 C 43.050781 -174.515625 43.878906 -174.828125 44.296875 -175.109375 C 46.359375 -175.929688 48.597656 -177.203125 51.015625 -178.921875 C 53.429688 -180.648438 55.945312 -182.375 58.5625 -184.09375 C 61.1875 -185.820312 63.8125 -187.304688 66.4375 -188.546875 C 69.0625 -189.796875 71.546875 -190.421875 73.890625 -190.421875 C 76.234375 -190.421875 78.921875 -189.898438 81.953125 -188.859375 C 84.992188 -187.828125 87.550781 -186.96875 89.625 -186.28125 C 93.34375 -185.039062 96.925781 -183.867188 100.375 -182.765625 C 103.832031 -181.660156 106.90625 -180.207031 109.59375 -178.40625 C 112.28125 -176.613281 114.414062 -174.335938 116 -171.578125 C 117.59375 -168.816406 118.390625 -165.234375 118.390625 -160.828125 C 118.390625 -159.304688 118.21875 -157.128906 117.875 -154.296875 C 117.53125 -151.472656 116.941406 -148.710938 116.109375 -146.015625 C 115.285156 -143.328125 114.113281 -140.984375 112.59375 -138.984375 C 111.070312 -136.984375 109.140625 -135.984375 106.796875 -135.984375 L 105.5625 -135.984375 C 105.28125 -136.253906 104.796875 -137.21875 104.109375 -138.875 C 103.421875 -140.53125 102.9375 -141.5 102.65625 -141.78125 C 100.726562 -145.226562 98.625 -148.535156 96.34375 -151.703125 C 94.070312 -154.878906 91.519531 -157.675781 88.6875 -160.09375 C 85.863281 -162.507812 82.796875 -164.40625 79.484375 -165.78125 C 76.171875 -167.164062 72.441406 -167.859375 68.296875 -167.859375 C 67.054688 -167.859375 65.609375 -167.785156 63.953125 -167.640625 C 62.296875 -167.503906 60.847656 -167.023438 59.609375 -166.203125 C 54.921875 -162.617188 51.367188 -158.820312 48.953125 -154.8125 C 46.535156 -150.8125 45.328125 -145.773438 45.328125 -139.703125 C 45.328125 -136.398438 46.082031 -133.398438 47.59375 -130.703125 C 49.113281 -128.015625 51.046875 -125.632812 53.390625 -123.5625 C 55.742188 -121.5 58.367188 -119.707031 61.265625 -118.1875 C 64.160156 -116.664062 66.988281 -115.492188 69.75 -114.671875 C 69.882812 -114.523438 70.363281 -114.382812 71.1875 -114.25 C 72.019531 -114.113281 72.953125 -113.972656 73.984375 -113.828125 C 75.023438 -113.691406 75.957031 -113.554688 76.78125 -113.421875 C 77.613281 -113.285156 78.097656 -113.21875 78.234375 -113.21875 C 78.515625 -113.21875 79 -112.972656 79.6875 -112.484375 C 80.375 -112.003906 80.859375 -111.765625 81.140625 -111.765625 C 84.171875 -109.554688 87.304688 -107.382812 90.546875 -105.25 C 93.796875 -103.113281 96.972656 -100.90625 100.078125 -98.625 C 103.179688 -96.34375 106.179688 -93.890625 109.078125 -91.265625 C 111.972656 -88.648438 114.59375 -85.828125 116.9375 -82.796875 C 117.082031 -82.648438 117.359375 -82.160156 117.765625 -81.328125 C 118.179688 -80.503906 118.628906 -79.578125 119.109375 -78.546875 C 119.597656 -77.515625 120.046875 -76.476562 120.453125 -75.4375 C 120.867188 -74.40625 121.21875 -73.613281 121.5 -73.0625 C 121.5 -72.789062 121.53125 -72.238281 121.59375 -71.40625 C 121.664062 -70.582031 121.769531 -69.6875 121.90625 -68.71875 C 122.039062 -67.75 122.210938 -66.816406 122.421875 -65.921875 C 122.628906 -65.023438 122.800781 -64.507812 122.9375 -64.375 C 123.488281 -62.71875 124.175781 -61.234375 125 -59.921875 C 125.832031 -58.609375 126.628906 -57.332031 127.390625 -56.09375 C 128.148438 -54.851562 128.804688 -53.609375 129.359375 -52.359375 C 129.910156 -51.117188 130.1875 -49.671875 130.1875 -48.015625 C 130.1875 -43.597656 129.21875 -39.523438 127.28125 -35.796875 C 125.351562 -32.078125 123.425781 -28.148438 121.5 -24.015625 C 119.707031 -21.109375 117.359375 -18.273438 114.453125 -15.515625 C 111.554688 -12.765625 109.144531 -10.488281 107.21875 -8.6875 C 101.695312 -3.863281 95.347656 -0.453125 88.171875 1.546875 C 80.992188 3.546875 74.09375 4.546875 67.46875 4.546875 C 62.507812 4.546875 57.472656 4.269531 52.359375 3.71875 C 47.253906 3.164062 42.492188 1.925781 38.078125 0 C 37.941406 -0.132812 37.457031 -0.441406 36.625 -0.921875 C 35.800781 -1.410156 34.867188 -1.960938 33.828125 -2.578125 C 32.796875 -3.203125 31.832031 -3.789062 30.9375 -4.34375 C 30.039062 -4.894531 29.457031 -5.238281 29.1875 -5.375 C 26.425781 -7.03125 23.972656 -8.515625 21.828125 -9.828125 C 19.691406 -11.140625 17.929688 -12.625 16.546875 -14.28125 C 15.171875 -15.9375 14.140625 -17.9375 13.453125 -20.28125 C 12.765625 -22.625 12.421875 -25.660156 12.421875 -29.390625 Z M 12.421875 -29.390625 "/></g></g></g><g fill="#000000" fill-opacity="1"><g transform="translate(574.025668, 374.842369)"><g><path d="M 61.0625 -148.203125 C 61.0625 -144.890625 61.816406 -142.503906 63.328125 -141.046875 C 64.847656 -139.597656 66.742188 -138.664062 69.015625 -138.25 C 71.296875 -137.84375 73.78125 -137.671875 76.46875 -137.734375 C 79.164062 -137.804688 81.617188 -137.707031 83.828125 -137.4375 C 84.097656 -137.4375 84.644531 -137.191406 85.46875 -136.703125 C 86.300781 -136.222656 86.859375 -135.984375 87.140625 -135.984375 C 89.898438 -135.160156 91.96875 -134.675781 93.34375 -134.53125 C 94.726562 -134.394531 96.800781 -134.328125 99.5625 -134.328125 C 102.175781 -134.328125 104.863281 -134.429688 107.625 -134.640625 C 110.382812 -134.847656 112.898438 -135.363281 115.171875 -136.1875 C 117.453125 -137.019531 119.316406 -138.332031 120.765625 -140.125 C 122.210938 -141.914062 122.9375 -144.398438 122.9375 -147.578125 C 122.9375 -151.578125 122.28125 -155.75 120.96875 -160.09375 C 119.664062 -164.4375 117.425781 -167.851562 114.25 -170.34375 C 113.5625 -170.34375 112.492188 -170.410156 111.046875 -170.546875 C 109.597656 -170.679688 108.046875 -170.816406 106.390625 -170.953125 C 104.734375 -171.097656 103.109375 -171.273438 101.515625 -171.484375 C 99.929688 -171.691406 98.796875 -171.796875 98.109375 -171.796875 C 97.828125 -171.929688 97.484375 -172.132812 97.078125 -172.40625 C 96.242188 -172.957031 95.757812 -173.234375 95.625 -173.234375 L 92.109375 -173.234375 C 89.210938 -173.234375 85.929688 -172.507812 82.265625 -171.0625 C 78.609375 -169.613281 75.226562 -167.71875 72.125 -165.375 C 69.019531 -163.03125 66.398438 -160.375 64.265625 -157.40625 C 62.128906 -154.4375 61.0625 -151.367188 61.0625 -148.203125 Z M 13.65625 -97.078125 C 13.65625 -105.210938 14.585938 -113.453125 16.453125 -121.796875 C 18.316406 -130.148438 21.664062 -137.773438 26.5 -144.671875 C 27.457031 -146.054688 28.832031 -147.882812 30.625 -150.15625 C 32.425781 -152.4375 34.1875 -154.710938 35.90625 -156.984375 C 37.632812 -159.265625 39.117188 -161.300781 40.359375 -163.09375 C 41.597656 -164.894531 42.289062 -165.929688 42.4375 -166.203125 C 44.226562 -168.410156 46.570312 -170.476562 49.46875 -172.40625 C 52.363281 -174.34375 55.394531 -176.207031 58.5625 -178 C 61.738281 -179.789062 64.914062 -181.546875 68.09375 -183.265625 C 71.269531 -184.992188 74.03125 -186.6875 76.375 -188.34375 C 79.132812 -188.894531 81.894531 -189.34375 84.65625 -189.6875 C 87.414062 -190.039062 90.175781 -190.21875 92.9375 -190.21875 C 97.488281 -190.21875 101.628906 -189.734375 105.359375 -188.765625 C 108.253906 -186.828125 111.359375 -185.617188 114.671875 -185.140625 C 117.984375 -184.660156 121.222656 -183.9375 124.390625 -182.96875 C 127.015625 -182.28125 129.601562 -181.210938 132.15625 -179.765625 C 134.707031 -178.316406 137.050781 -176.585938 139.1875 -174.578125 C 141.332031 -172.578125 143.332031 -170.4375 145.1875 -168.15625 C 147.050781 -165.882812 148.675781 -163.644531 150.0625 -161.4375 C 150.195312 -161.300781 150.398438 -160.957031 150.671875 -160.40625 C 150.953125 -159.851562 151.265625 -159.265625 151.609375 -158.640625 C 151.953125 -158.023438 152.257812 -157.441406 152.53125 -156.890625 C 152.8125 -156.335938 152.953125 -155.992188 152.953125 -155.859375 C 153.640625 -154.890625 154.570312 -153.816406 155.75 -152.640625 C 156.925781 -151.472656 158.066406 -150.234375 159.171875 -148.921875 C 160.273438 -147.609375 161.203125 -146.226562 161.953125 -144.78125 C 162.710938 -143.332031 163.09375 -141.847656 163.09375 -140.328125 C 163.09375 -139.222656 163.023438 -137.878906 162.890625 -136.296875 C 162.753906 -134.710938 162.476562 -133.125 162.0625 -131.53125 C 161.644531 -129.945312 161.054688 -128.460938 160.296875 -127.078125 C 159.546875 -125.703125 158.546875 -124.738281 157.296875 -124.1875 C 157.023438 -124.1875 156.507812 -124.046875 155.75 -123.765625 C 154.988281 -123.492188 154.125 -123.1875 153.15625 -122.84375 C 152.195312 -122.5 151.269531 -122.1875 150.375 -121.90625 C 149.476562 -121.632812 148.890625 -121.425781 148.609375 -121.28125 C 148.472656 -121.28125 148.023438 -121.109375 147.265625 -120.765625 C 146.503906 -120.421875 146.054688 -120.179688 145.921875 -120.046875 C 144.128906 -120.046875 141.40625 -120.007812 137.75 -119.9375 C 134.09375 -119.875 129.953125 -119.804688 125.328125 -119.734375 C 120.703125 -119.671875 115.835938 -119.566406 110.734375 -119.421875 C 105.628906 -119.285156 100.765625 -119.148438 96.140625 -119.015625 C 91.515625 -118.878906 87.335938 -118.773438 83.609375 -118.703125 C 79.890625 -118.628906 77.132812 -118.59375 75.34375 -118.59375 C 74.789062 -118.59375 73.753906 -118.554688 72.234375 -118.484375 C 70.710938 -118.421875 69.125 -118.320312 67.46875 -118.1875 C 65.8125 -118.050781 64.257812 -117.878906 62.8125 -117.671875 C 61.363281 -117.460938 60.363281 -117.289062 59.8125 -117.15625 C 56.226562 -114.25 53.847656 -110.757812 52.671875 -106.6875 C 51.503906 -102.625 50.921875 -98.316406 50.921875 -93.765625 C 50.921875 -88.796875 51.398438 -84.484375 52.359375 -80.828125 C 53.328125 -77.171875 54.78125 -72.992188 56.71875 -68.296875 C 56.988281 -68.023438 57.296875 -67.507812 57.640625 -66.75 C 57.984375 -65.988281 58.15625 -65.472656 58.15625 -65.203125 C 58.300781 -65.054688 58.679688 -64.742188 59.296875 -64.265625 C 59.921875 -63.785156 60.539062 -63.234375 61.15625 -62.609375 C 61.78125 -61.984375 62.367188 -61.359375 62.921875 -60.734375 C 63.472656 -60.117188 63.75 -59.675781 63.75 -59.40625 C 63.882812 -59.269531 64.332031 -58.820312 65.09375 -58.0625 C 65.851562 -57.300781 66.644531 -56.4375 67.46875 -55.46875 C 68.300781 -54.5 69.0625 -53.566406 69.75 -52.671875 C 70.4375 -51.773438 70.851562 -51.191406 71 -50.921875 C 71.269531 -50.921875 71.578125 -50.710938 71.921875 -50.296875 C 72.265625 -49.878906 72.578125 -49.671875 72.859375 -49.671875 C 74.097656 -48.566406 75.648438 -47.253906 77.515625 -45.734375 C 79.378906 -44.222656 81.207031 -42.773438 83 -41.390625 C 85.070312 -39.734375 87.28125 -38.078125 89.625 -36.421875 C 95.550781 -34.765625 101.273438 -33.9375 106.796875 -33.9375 C 112.316406 -33.9375 118.179688 -34.765625 124.390625 -36.421875 C 127.984375 -38.628906 131.675781 -40.320312 135.46875 -41.5 C 139.257812 -42.675781 143.085938 -43.882812 146.953125 -45.125 C 147.234375 -45.394531 147.785156 -45.703125 148.609375 -46.046875 C 149.441406 -46.390625 149.925781 -46.703125 150.0625 -46.984375 L 151.5 -46.984375 C 152.46875 -46.566406 153.675781 -46.015625 155.125 -45.328125 C 156.570312 -44.640625 157.296875 -44.085938 157.296875 -43.671875 C 157.578125 -43.398438 157.890625 -42.363281 158.234375 -40.5625 C 158.578125 -38.769531 158.75 -37.390625 158.75 -36.421875 C 158.75 -34.078125 158.09375 -31.316406 156.78125 -28.140625 C 155.46875 -24.972656 154.191406 -22.628906 152.953125 -21.109375 C 152.953125 -20.835938 152.160156 -20.148438 150.578125 -19.046875 C 148.992188 -17.941406 147.785156 -17.113281 146.953125 -16.5625 C 142.535156 -13.664062 138.1875 -10.59375 133.90625 -7.34375 C 129.632812 -4.101562 125.015625 -1.519531 120.046875 0.40625 C 119.773438 0.550781 119.117188 0.722656 118.078125 0.921875 C 117.046875 1.128906 115.976562 1.300781 114.875 1.4375 C 113.769531 1.582031 112.734375 1.722656 111.765625 1.859375 C 110.796875 1.992188 110.242188 2.0625 110.109375 2.0625 C 107.484375 2.757812 105.238281 3.414062 103.375 4.03125 C 101.519531 4.65625 99.347656 4.96875 96.859375 4.96875 C 94.515625 4.96875 92.375 4.65625 90.4375 4.03125 C 88.507812 3.414062 86.304688 2.757812 83.828125 2.0625 C 82.585938 1.789062 80.828125 1.34375 78.546875 0.71875 C 76.273438 0.101562 73.894531 -0.613281 71.40625 -1.4375 C 68.925781 -2.269531 66.613281 -3.171875 64.46875 -4.140625 C 62.332031 -5.109375 60.78125 -6.003906 59.8125 -6.828125 C 59.40625 -6.960938 58.648438 -7.582031 57.546875 -8.6875 C 56.441406 -9.789062 55.234375 -10.960938 53.921875 -12.203125 C 52.609375 -13.453125 51.398438 -14.628906 50.296875 -15.734375 C 49.191406 -16.835938 48.429688 -17.523438 48.015625 -17.796875 C 47.878906 -18.078125 47.191406 -18.628906 45.953125 -19.453125 C 44.710938 -20.285156 44.019531 -20.835938 43.875 -21.109375 C 43.1875 -21.390625 42.359375 -22.046875 41.390625 -23.078125 C 40.429688 -24.109375 39.8125 -24.765625 39.53125 -25.046875 C 39.113281 -25.597656 38.25 -26.875 36.9375 -28.875 C 35.632812 -30.875 34.222656 -33.046875 32.703125 -35.390625 C 31.179688 -37.734375 29.695312 -40.007812 28.25 -42.21875 C 26.800781 -44.425781 25.800781 -46.015625 25.25 -46.984375 C 23.320312 -49.742188 22.046875 -52.503906 21.421875 -55.265625 C 20.796875 -58.023438 20.140625 -60.988281 19.453125 -64.15625 C 19.453125 -64.300781 19.207031 -64.957031 18.71875 -66.125 C 18.238281 -67.300781 18 -68.023438 18 -68.296875 C 16.207031 -72.441406 15.035156 -77.097656 14.484375 -82.265625 C 13.929688 -87.441406 13.65625 -92.378906 13.65625 -97.078125 Z M 95.625 -221.46875 C 95.625 -227.394531 96.660156 -232.875 98.734375 -237.90625 C 100.804688 -242.945312 103.425781 -247.742188 106.59375 -252.296875 C 109.769531 -256.859375 113.21875 -261.242188 116.9375 -265.453125 C 120.664062 -269.660156 124.1875 -273.972656 127.5 -278.390625 C 130.125 -282.109375 132.539062 -285.554688 134.75 -288.734375 C 136.957031 -291.910156 139.367188 -294.671875 141.984375 -297.015625 C 144.609375 -299.359375 147.679688 -301.21875 151.203125 -302.59375 C 154.722656 -303.976562 159.101562 -304.671875 164.34375 -304.671875 L 167.25 -304.671875 C 167.519531 -304.253906 167.960938 -303.597656 168.578125 -302.703125 C 169.203125 -301.804688 169.859375 -300.835938 170.546875 -299.796875 C 171.242188 -298.765625 171.867188 -297.734375 172.421875 -296.703125 C 172.972656 -295.671875 173.25 -294.945312 173.25 -294.53125 L 173.25 -291.625 C 173.25 -289.695312 173.175781 -288.179688 173.03125 -287.078125 C 172.894531 -285.972656 172.414062 -284.523438 171.59375 -282.734375 C 170.625 -281.078125 169.617188 -279.765625 168.578125 -278.796875 C 167.546875 -277.828125 166.515625 -276.925781 165.484375 -276.09375 C 164.453125 -275.269531 163.414062 -274.445312 162.375 -273.625 C 161.34375 -272.800781 160.34375 -271.765625 159.375 -270.515625 C 158.96875 -269.960938 158.28125 -268.894531 157.3125 -267.3125 C 156.34375 -265.726562 155.722656 -264.796875 155.453125 -264.515625 C 153.796875 -261.617188 152.066406 -259 150.265625 -256.65625 C 148.472656 -254.3125 146.679688 -252.101562 144.890625 -250.03125 C 143.097656 -247.957031 141.234375 -245.882812 139.296875 -243.8125 C 137.367188 -241.75 135.4375 -239.472656 133.5 -236.984375 C 133.226562 -236.578125 132.78125 -235.890625 132.15625 -234.921875 C 131.539062 -233.953125 130.921875 -232.878906 130.296875 -231.703125 C 129.671875 -230.535156 129.082031 -229.46875 128.53125 -228.5 C 127.988281 -227.539062 127.644531 -226.988281 127.5 -226.84375 C 126.945312 -226.15625 125.945312 -225.015625 124.5 -223.421875 C 123.050781 -221.835938 121.5 -220.21875 119.84375 -218.5625 C 118.1875 -216.90625 116.566406 -215.316406 114.984375 -213.796875 C 113.398438 -212.285156 112.332031 -211.253906 111.78125 -210.703125 L 110.328125 -210.703125 C 108.804688 -210.703125 107.21875 -210.910156 105.5625 -211.328125 C 103.90625 -211.742188 102.316406 -212.398438 100.796875 -213.296875 C 99.285156 -214.191406 98.046875 -215.289062 97.078125 -216.59375 C 96.109375 -217.90625 95.625 -219.53125 95.625 -221.46875 Z M 95.625 -221.46875 "/></g></g></g></g></g><g transform="matrix(1, 0, 0, 1, 161, 337)"><g clip-path="url(#578c7efed7)"><g fill="#000000" fill-opacity="1"><g transform="translate(7.473299, 386.716475)"><g><path d="M -4.96875 -176.140625 C -4.96875 -176.828125 -4.550781 -177.617188 -3.71875 -178.515625 C -2.894531 -179.410156 -1.929688 -180.238281 -0.828125 -181 C 0.273438 -181.757812 1.34375 -182.414062 2.375 -182.96875 C 3.414062 -183.519531 4.210938 -183.863281 4.765625 -184 L 16.5625 -184 C 16.832031 -184 17.550781 -184.171875 18.71875 -184.515625 C 19.894531 -184.859375 20.625 -185.03125 20.90625 -185.03125 C 21.039062 -185.175781 21.25 -185.316406 21.53125 -185.453125 C 21.800781 -185.722656 22.078125 -185.859375 22.359375 -185.859375 C 22.359375 -185.859375 22.632812 -185.722656 23.1875 -185.453125 C 23.320312 -185.316406 23.523438 -185.175781 23.796875 -185.03125 C 23.941406 -185.03125 24.425781 -184.859375 25.25 -184.515625 C 26.082031 -184.171875 26.632812 -184 26.90625 -184 L 39.53125 -184 C 39.8125 -184 40.429688 -183.929688 41.390625 -183.796875 C 42.359375 -183.660156 43.425781 -183.488281 44.59375 -183.28125 C 45.769531 -183.070312 46.84375 -182.894531 47.8125 -182.75 C 48.78125 -182.613281 49.332031 -182.546875 49.46875 -182.546875 L 71 -182.546875 C 73.757812 -182.546875 75.445312 -181.71875 76.0625 -180.0625 C 76.6875 -178.414062 77 -176.554688 77 -174.484375 C 77 -171.585938 76.375 -169.757812 75.125 -169 C 73.882812 -168.238281 72.539062 -167.753906 71.09375 -167.546875 C 69.644531 -167.335938 68.300781 -167.023438 67.0625 -166.609375 C 65.820312 -166.203125 65.203125 -164.828125 65.203125 -162.484375 C 65.203125 -160.273438 65.476562 -157.960938 66.03125 -155.546875 C 66.582031 -153.128906 67.269531 -150.710938 68.09375 -148.296875 C 68.925781 -145.878906 69.753906 -143.53125 70.578125 -141.25 C 71.410156 -138.976562 72.03125 -136.878906 72.4375 -134.953125 C 72.582031 -134.816406 72.722656 -134.195312 72.859375 -133.09375 C 72.992188 -131.988281 73.128906 -130.8125 73.265625 -129.5625 C 73.410156 -128.320312 73.550781 -127.113281 73.6875 -125.9375 C 73.820312 -124.769531 73.890625 -123.976562 73.890625 -123.5625 C 74.171875 -123.289062 74.894531 -122.394531 76.0625 -120.875 C 77.238281 -119.351562 77.960938 -118.457031 78.234375 -118.1875 C 78.515625 -117.632812 78.828125 -117.007812 79.171875 -116.3125 C 79.515625 -115.625 79.6875 -115.144531 79.6875 -114.875 C 79.6875 -114.320312 79.71875 -113.5625 79.78125 -112.59375 C 79.851562 -111.625 79.890625 -110.519531 79.890625 -109.28125 C 79.890625 -108.039062 79.851562 -106.898438 79.78125 -105.859375 C 79.71875 -104.828125 79.6875 -104.175781 79.6875 -103.90625 C 81.0625 -100.726562 82.160156 -97.894531 82.984375 -95.40625 C 83.816406 -92.925781 84.644531 -90.648438 85.46875 -88.578125 C 86.300781 -86.515625 87.234375 -84.515625 88.265625 -82.578125 C 89.304688 -80.648438 90.722656 -78.648438 92.515625 -76.578125 C 93.484375 -75.753906 94.691406 -75.269531 96.140625 -75.125 C 97.585938 -74.988281 99.207031 -74.921875 101 -74.921875 C 104.863281 -74.921875 107.832031 -76.265625 109.90625 -78.953125 C 111.976562 -81.648438 113.359375 -84.585938 114.046875 -87.765625 C 114.316406 -88.316406 114.726562 -89.796875 115.28125 -92.203125 C 115.832031 -94.617188 116.421875 -97.238281 117.046875 -100.0625 C 117.671875 -102.894531 118.257812 -105.484375 118.8125 -107.828125 C 119.363281 -110.179688 119.773438 -111.703125 120.046875 -112.390625 C 120.179688 -112.660156 120.523438 -113.347656 121.078125 -114.453125 C 121.628906 -115.554688 122.25 -116.726562 122.9375 -117.96875 C 123.632812 -119.21875 124.257812 -120.394531 124.8125 -121.5 C 125.363281 -122.601562 125.707031 -123.289062 125.84375 -123.5625 C 125.84375 -123.695312 125.910156 -124.144531 126.046875 -124.90625 C 126.179688 -125.664062 126.351562 -126.457031 126.5625 -127.28125 C 126.769531 -128.113281 126.941406 -128.875 127.078125 -129.5625 C 127.222656 -130.257812 127.296875 -130.609375 127.296875 -130.609375 C 127.847656 -133.503906 128.675781 -136.46875 129.78125 -139.5 C 130.882812 -142.539062 131.4375 -145.441406 131.4375 -148.203125 L 131.4375 -149.234375 C 131.289062 -149.648438 130.941406 -150.203125 130.390625 -150.890625 C 129.835938 -151.578125 129.25 -152.332031 128.625 -153.15625 C 128.007812 -153.988281 127.425781 -154.710938 126.875 -155.328125 C 126.320312 -155.953125 125.976562 -156.332031 125.84375 -156.46875 C 124.1875 -157.851562 122.285156 -158.957031 120.140625 -159.78125 C 118.003906 -160.613281 115.9375 -161.546875 113.9375 -162.578125 C 111.9375 -163.617188 110.242188 -164.863281 108.859375 -166.3125 C 107.484375 -167.757812 106.796875 -169.863281 106.796875 -172.625 C 106.796875 -174.28125 107.175781 -175.898438 107.9375 -177.484375 C 108.695312 -179.066406 109.695312 -180.476562 110.9375 -181.71875 C 112.175781 -182.96875 113.585938 -183.96875 115.171875 -184.71875 C 116.765625 -185.476562 118.390625 -185.859375 120.046875 -185.859375 C 123.078125 -185.859375 126.078125 -185.546875 129.046875 -184.921875 C 132.015625 -184.304688 135.222656 -184 138.671875 -184 C 141.847656 -184 144.78125 -184.101562 147.46875 -184.3125 C 150.15625 -184.519531 153.296875 -184.757812 156.890625 -185.03125 C 157.304688 -185.445312 158.132812 -185.789062 159.375 -186.0625 C 160.613281 -186.34375 161.375 -186.625 161.65625 -186.90625 L 166 -186.90625 C 167.925781 -186.90625 169.957031 -186.832031 172.09375 -186.6875 C 174.238281 -186.550781 176.273438 -186.171875 178.203125 -185.546875 C 180.140625 -184.929688 181.898438 -184.035156 183.484375 -182.859375 C 185.066406 -181.691406 186.34375 -180.070312 187.3125 -178 L 187.3125 -175.71875 C 187.3125 -173.65625 187 -172 186.375 -170.75 C 185.757812 -169.507812 184.929688 -168.546875 183.890625 -167.859375 C 182.859375 -167.171875 181.648438 -166.515625 180.265625 -165.890625 C 178.890625 -165.273438 177.445312 -164.550781 175.9375 -163.71875 C 174.132812 -162.613281 172.785156 -161.09375 171.890625 -159.15625 C 170.992188 -157.226562 169.925781 -155.503906 168.6875 -153.984375 C 167.164062 -152.054688 165.644531 -150.472656 164.125 -149.234375 C 162.613281 -147.992188 161.304688 -146.128906 160.203125 -143.640625 C 160.066406 -143.503906 159.859375 -143.019531 159.578125 -142.1875 C 159.304688 -141.363281 158.992188 -140.46875 158.640625 -139.5 C 158.296875 -138.53125 157.953125 -137.597656 157.609375 -136.703125 C 157.265625 -135.804688 157.023438 -135.222656 156.890625 -134.953125 C 156.890625 -134.671875 156.539062 -133.804688 155.84375 -132.359375 C 155.15625 -130.910156 154.675781 -129.910156 154.40625 -129.359375 C 153.71875 -127.429688 153.300781 -125.914062 153.15625 -124.8125 C 153.019531 -123.707031 152.46875 -122.328125 151.5 -120.671875 C 149.15625 -117.492188 146.945312 -114.59375 144.875 -111.96875 C 142.8125 -109.351562 141.226562 -106.046875 140.125 -102.046875 C 139.988281 -101.898438 139.847656 -101.484375 139.703125 -100.796875 C 139.566406 -100.109375 139.429688 -99.347656 139.296875 -98.515625 C 139.160156 -97.691406 139.019531 -96.898438 138.875 -96.140625 C 138.738281 -95.378906 138.671875 -94.929688 138.671875 -94.796875 C 138.117188 -92.585938 137.328125 -90.484375 136.296875 -88.484375 C 135.265625 -86.484375 134.125 -84.484375 132.875 -82.484375 C 131.632812 -80.484375 130.394531 -78.515625 129.15625 -76.578125 C 127.914062 -74.648438 126.8125 -72.648438 125.84375 -70.578125 C 123.082031 -65.191406 120.804688 -59.703125 119.015625 -54.109375 C 117.222656 -48.523438 115.148438 -43.046875 112.796875 -37.671875 C 112.660156 -37.390625 112.347656 -36.867188 111.859375 -36.109375 C 111.378906 -35.359375 110.898438 -34.601562 110.421875 -33.84375 C 109.941406 -33.082031 109.492188 -32.351562 109.078125 -31.65625 C 108.660156 -30.96875 108.382812 -30.554688 108.25 -30.421875 C 107.28125 -28.765625 106.453125 -26.796875 105.765625 -24.515625 C 105.078125 -22.242188 104.59375 -20.28125 104.3125 -18.625 L 104.3125 -11.390625 C 103.625 -10.003906 103.003906 -8.691406 102.453125 -7.453125 C 101.898438 -6.347656 101.347656 -5.3125 100.796875 -4.34375 C 100.242188 -3.375 99.832031 -2.546875 99.5625 -1.859375 C 99.28125 -0.753906 98.65625 0.484375 97.6875 1.859375 C 96.726562 3.242188 95.488281 3.9375 93.96875 3.9375 C 92.582031 3.9375 90.957031 2.9375 89.09375 0.9375 C 87.238281 -1.0625 85.378906 -3.40625 83.515625 -6.09375 C 81.648438 -8.789062 79.992188 -11.484375 78.546875 -14.171875 C 77.097656 -16.867188 76.164062 -18.972656 75.75 -20.484375 C 75.34375 -21.316406 74.863281 -22.628906 74.3125 -24.421875 C 73.757812 -26.210938 73.171875 -28.039062 72.546875 -29.90625 C 71.921875 -31.769531 71.367188 -33.425781 70.890625 -34.875 C 70.410156 -36.320312 70.097656 -37.253906 69.953125 -37.671875 C 69.679688 -37.804688 69.472656 -38.285156 69.328125 -39.109375 C 69.191406 -39.941406 69.054688 -40.84375 68.921875 -41.8125 C 68.785156 -42.78125 68.679688 -43.675781 68.609375 -44.5 C 68.546875 -45.320312 68.515625 -45.875 68.515625 -46.15625 C 68.234375 -46.570312 67.675781 -47.570312 66.84375 -49.15625 C 66.019531 -50.738281 65.472656 -51.671875 65.203125 -51.953125 C 65.203125 -52.367188 64.992188 -53.160156 64.578125 -54.328125 C 64.160156 -55.503906 63.742188 -56.78125 63.328125 -58.15625 C 62.921875 -59.539062 62.507812 -60.851562 62.09375 -62.09375 C 61.675781 -63.332031 61.398438 -64.226562 61.265625 -64.78125 C 59.742188 -69.195312 58.328125 -73.71875 57.015625 -78.34375 C 55.710938 -82.96875 54.160156 -87.554688 52.359375 -92.109375 C 52.085938 -92.796875 51.640625 -94.070312 51.015625 -95.9375 C 50.398438 -97.800781 49.882812 -98.867188 49.46875 -99.140625 C 49.332031 -99.554688 48.882812 -100.519531 48.125 -102.03125 C 47.363281 -103.550781 46.84375 -104.660156 46.5625 -105.359375 C 46.5625 -105.492188 46.492188 -105.972656 46.359375 -106.796875 C 46.222656 -107.628906 46.082031 -108.492188 45.9375 -109.390625 C 45.800781 -110.285156 45.664062 -111.144531 45.53125 -111.96875 C 45.394531 -112.800781 45.328125 -113.285156 45.328125 -113.421875 C 45.328125 -114.109375 44.910156 -115.175781 44.078125 -116.625 C 43.253906 -118.082031 42.707031 -119.085938 42.4375 -119.640625 C 42.289062 -119.773438 41.941406 -120.082031 41.390625 -120.5625 C 40.835938 -121.039062 40.21875 -121.59375 39.53125 -122.21875 C 38.84375 -122.84375 38.222656 -123.429688 37.671875 -123.984375 C 37.117188 -124.535156 36.773438 -124.945312 36.640625 -125.21875 C 36.492188 -125.351562 36.210938 -125.832031 35.796875 -126.65625 C 35.390625 -127.488281 34.941406 -128.390625 34.453125 -129.359375 C 33.972656 -130.328125 33.523438 -131.257812 33.109375 -132.15625 C 32.703125 -133.050781 32.425781 -133.640625 32.28125 -133.921875 C 32.28125 -134.054688 32.039062 -134.363281 31.5625 -134.84375 C 31.082031 -135.332031 30.597656 -135.882812 30.109375 -136.5 C 29.628906 -137.125 29.144531 -137.742188 28.65625 -138.359375 C 28.175781 -138.984375 27.9375 -139.429688 27.9375 -139.703125 C 27.800781 -140.117188 27.734375 -140.8125 27.734375 -141.78125 C 27.734375 -142.46875 27.765625 -143.257812 27.828125 -144.15625 C 27.898438 -145.050781 27.9375 -145.914062 27.9375 -146.75 C 27.9375 -147.4375 27.898438 -148.125 27.828125 -148.8125 C 27.765625 -149.507812 27.457031 -150.132812 26.90625 -150.6875 C 26.632812 -150.957031 26.082031 -151.265625 25.25 -151.609375 C 24.425781 -151.953125 23.941406 -152.265625 23.796875 -152.546875 C 23.523438 -152.679688 23.039062 -153.09375 22.34375 -153.78125 C 21.65625 -154.46875 20.894531 -155.222656 20.0625 -156.046875 C 19.238281 -156.878906 18.484375 -157.640625 17.796875 -158.328125 C 17.109375 -159.023438 16.695312 -159.507812 16.5625 -159.78125 C 15.457031 -160.613281 13.695312 -161.582031 11.28125 -162.6875 C 8.863281 -163.789062 6.445312 -164.992188 4.03125 -166.296875 C 1.613281 -167.609375 -0.488281 -169.09375 -2.28125 -170.75 C -4.070312 -172.40625 -4.96875 -174.203125 -4.96875 -176.140625 Z M -4.96875 -176.140625 "/></g></g></g><g fill="#000000" fill-opacity="1"><g transform="translate(226.384125, 386.716475)"><g><path d="M 32.078125 -250.65625 C 32.078125 -256.03125 33.5625 -261.234375 36.53125 -266.265625 C 39.5 -271.304688 43.394531 -275.070312 48.21875 -277.5625 C 48.769531 -277.5625 49.875 -277.628906 51.53125 -277.765625 C 53.1875 -277.898438 54.910156 -278.035156 56.703125 -278.171875 C 58.503906 -278.316406 60.234375 -278.421875 61.890625 -278.484375 C 63.546875 -278.554688 64.71875 -278.59375 65.40625 -278.59375 C 65.40625 -279.007812 65.613281 -279.21875 66.03125 -279.21875 C 68.238281 -279.21875 70.132812 -278.765625 71.71875 -277.859375 C 73.300781 -276.960938 74.710938 -275.828125 75.953125 -274.453125 C 77.203125 -273.078125 78.34375 -271.523438 79.375 -269.796875 C 80.40625 -268.066406 81.335938 -266.445312 82.171875 -264.9375 C 82.585938 -264.238281 83.035156 -263.441406 83.515625 -262.546875 C 83.992188 -261.648438 84.472656 -260.71875 84.953125 -259.75 C 85.441406 -258.789062 85.859375 -257.960938 86.203125 -257.265625 C 86.546875 -256.578125 86.71875 -256.164062 86.71875 -256.03125 C 86.71875 -255.613281 86.785156 -254.335938 86.921875 -252.203125 C 87.066406 -250.066406 87.140625 -248.445312 87.140625 -247.34375 C 87.140625 -243.195312 86.515625 -239.226562 85.265625 -235.4375 C 84.023438 -231.644531 82.195312 -228.265625 79.78125 -225.296875 C 77.375 -222.328125 74.476562 -219.945312 71.09375 -218.15625 C 67.71875 -216.363281 63.890625 -215.46875 59.609375 -215.46875 C 59.191406 -215.46875 58.46875 -215.535156 57.4375 -215.671875 C 56.40625 -215.804688 55.539062 -215.875 54.84375 -215.875 C 52.226562 -218.5 49.570312 -221.050781 46.875 -223.53125 C 44.1875 -226.019531 41.738281 -228.609375 39.53125 -231.296875 C 37.320312 -233.984375 35.523438 -236.878906 34.140625 -239.984375 C 32.765625 -243.085938 32.078125 -246.644531 32.078125 -250.65625 Z M 15.109375 -12.625 C 15.109375 -15.101562 15.863281 -17.207031 17.375 -18.9375 C 18.894531 -20.664062 20.691406 -22.285156 22.765625 -23.796875 C 24.835938 -25.316406 26.90625 -26.867188 28.96875 -28.453125 C 31.039062 -30.046875 32.628906 -32.015625 33.734375 -34.359375 C 34.421875 -36.015625 34.898438 -37.738281 35.171875 -39.53125 C 35.453125 -41.320312 35.59375 -43.1875 35.59375 -45.125 C 35.59375 -46.914062 35.523438 -48.640625 35.390625 -50.296875 C 35.253906 -51.953125 35.1875 -53.539062 35.1875 -55.0625 L 35.1875 -57.328125 C 35.1875 -57.609375 35.425781 -58.578125 35.90625 -60.234375 C 36.394531 -61.890625 36.640625 -62.785156 36.640625 -62.921875 L 36.640625 -78.859375 C 36.640625 -78.992188 36.707031 -79.472656 36.84375 -80.296875 C 36.976562 -81.128906 37.148438 -81.992188 37.359375 -82.890625 C 37.566406 -83.785156 37.738281 -84.644531 37.875 -85.46875 C 38.007812 -86.300781 38.078125 -86.789062 38.078125 -86.9375 C 38.078125 -87.34375 37.835938 -88.375 37.359375 -90.03125 C 36.878906 -91.6875 36.640625 -92.722656 36.640625 -93.140625 L 36.640625 -94.171875 C 36.640625 -94.453125 36.773438 -95.003906 37.046875 -95.828125 C 37.328125 -96.660156 37.601562 -97.554688 37.875 -98.515625 C 38.15625 -99.484375 38.429688 -100.378906 38.703125 -101.203125 C 38.984375 -102.035156 39.125 -102.59375 39.125 -102.875 C 39.125 -103.007812 39.257812 -104.078125 39.53125 -106.078125 C 39.8125 -108.078125 39.953125 -109.695312 39.953125 -110.9375 C 39.953125 -114.800781 39.742188 -118.390625 39.328125 -121.703125 C 38.910156 -125.015625 37.53125 -128.257812 35.1875 -131.4375 C 34.769531 -131.84375 33.972656 -132.769531 32.796875 -134.21875 C 31.628906 -135.664062 30.425781 -137.179688 29.1875 -138.765625 C 27.945312 -140.359375 26.773438 -141.8125 25.671875 -143.125 C 24.566406 -144.4375 23.941406 -145.300781 23.796875 -145.71875 C 23.796875 -145.988281 23.378906 -147.019531 22.546875 -148.8125 C 21.722656 -150.601562 21.175781 -151.984375 20.90625 -152.953125 L 20.90625 -153.984375 C 20.90625 -155.085938 21.316406 -156.191406 22.140625 -157.296875 C 22.972656 -158.398438 23.875 -159.300781 24.84375 -160 C 27.601562 -161.925781 30.5 -163.785156 33.53125 -165.578125 C 36.5625 -167.367188 39.53125 -168.957031 42.4375 -170.34375 C 42.707031 -170.34375 43.632812 -170.515625 45.21875 -170.859375 C 46.8125 -171.203125 47.8125 -171.515625 48.21875 -171.796875 C 48.5 -171.929688 49.328125 -172.34375 50.703125 -173.03125 C 52.085938 -173.71875 53.535156 -174.472656 55.046875 -175.296875 C 56.566406 -176.128906 58.015625 -176.925781 59.390625 -177.6875 C 60.773438 -178.445312 61.675781 -178.894531 62.09375 -179.03125 C 62.644531 -179.03125 63.75 -179.097656 65.40625 -179.234375 C 67.0625 -179.378906 68.234375 -179.453125 68.921875 -179.453125 C 69.609375 -179.453125 70.539062 -179.378906 71.71875 -179.234375 C 72.894531 -179.097656 73.617188 -179.03125 73.890625 -179.03125 L 76.375 -174.484375 C 76.507812 -174.484375 76.644531 -173.859375 76.78125 -172.609375 C 76.925781 -171.367188 77.097656 -169.921875 77.296875 -168.265625 C 77.503906 -166.617188 77.675781 -164.894531 77.8125 -163.09375 C 77.957031 -161.300781 78.097656 -159.785156 78.234375 -158.546875 L 78.234375 -156.46875 C 78.234375 -155.226562 78.164062 -154.226562 78.03125 -153.46875 C 77.894531 -152.707031 77.34375 -151.707031 76.375 -150.46875 C 76.375 -149.507812 76.441406 -147.925781 76.578125 -145.71875 C 76.710938 -143.507812 76.78125 -141.023438 76.78125 -138.265625 C 76.78125 -135.503906 76.710938 -132.945312 76.578125 -130.59375 C 76.441406 -128.25 76.375 -126.597656 76.375 -125.640625 C 76.375 -125.359375 76.234375 -124.664062 75.953125 -123.5625 C 75.679688 -122.457031 75.40625 -121.285156 75.125 -120.046875 C 74.851562 -118.804688 74.578125 -117.632812 74.296875 -116.53125 C 74.023438 -115.425781 73.890625 -114.804688 73.890625 -114.671875 L 73.890625 -110.9375 C 73.890625 -109.414062 74.128906 -108.140625 74.609375 -107.109375 C 75.097656 -106.078125 75.582031 -105.113281 76.0625 -104.21875 C 76.539062 -103.320312 77.019531 -102.457031 77.5 -101.625 C 77.988281 -100.800781 78.234375 -99.835938 78.234375 -98.734375 C 78.234375 -96.378906 78.09375 -93.890625 77.8125 -91.265625 C 77.539062 -88.648438 76.578125 -86.378906 74.921875 -84.453125 C 75.203125 -82.929688 75.34375 -81.445312 75.34375 -80 C 75.34375 -78.550781 75.34375 -77.066406 75.34375 -75.546875 C 75.34375 -71.816406 75.203125 -68.054688 74.921875 -64.265625 C 74.648438 -60.472656 74.304688 -56.578125 73.890625 -52.578125 C 73.890625 -52.429688 73.644531 -51.566406 73.15625 -49.984375 C 72.675781 -48.398438 72.4375 -47.46875 72.4375 -47.1875 L 72.4375 -41.609375 C 72.4375 -40.503906 72.503906 -39.429688 72.640625 -38.390625 C 72.785156 -37.359375 73.203125 -36.5 73.890625 -35.8125 L 92.515625 -17.171875 C 92.515625 -16.898438 92.6875 -16.210938 93.03125 -15.109375 C 93.375 -14.003906 93.6875 -13.242188 93.96875 -12.828125 L 93.96875 -11.390625 C 93.96875 -10.003906 93.65625 -8.550781 93.03125 -7.03125 C 92.414062 -5.519531 91.554688 -4.140625 90.453125 -2.890625 C 89.347656 -1.648438 88.101562 -0.617188 86.71875 0.203125 C 85.34375 1.035156 83.828125 1.453125 82.171875 1.453125 L 59.609375 1.453125 C 58.234375 1.453125 56.0625 1.378906 53.09375 1.234375 C 50.125 1.097656 47.050781 0.925781 43.875 0.71875 C 40.707031 0.507812 37.742188 0.335938 34.984375 0.203125 C 32.222656 0.0664062 30.425781 0 29.59375 0 C 25.457031 -0.269531 22.007812 -1.335938 19.25 -3.203125 C 16.488281 -5.066406 15.109375 -8.207031 15.109375 -12.625 Z M 15.109375 -12.625 "/></g></g></g><g fill="#000000" fill-opacity="1"><g transform="translate(366.229012, 386.716475)"><g><path d="M 31.046875 -32.90625 L 31.046875 -55.890625 C 31.046875 -56.023438 31.113281 -56.503906 31.25 -57.328125 C 31.382812 -58.160156 31.519531 -59.09375 31.65625 -60.125 C 31.800781 -61.15625 31.941406 -62.257812 32.078125 -63.4375 C 32.210938 -64.613281 32.28125 -65.546875 32.28125 -66.234375 C 32.5625 -66.503906 32.90625 -67.601562 33.3125 -69.53125 C 33.726562 -71.46875 33.9375 -72.785156 33.9375 -73.484375 L 33.9375 -100.171875 C 33.9375 -100.585938 34.109375 -101.585938 34.453125 -103.171875 C 34.804688 -104.765625 35.117188 -105.695312 35.390625 -105.96875 L 35.390625 -140.328125 C 35.390625 -141.160156 35.113281 -141.921875 34.5625 -142.609375 C 34.007812 -143.296875 33.316406 -143.878906 32.484375 -144.359375 C 31.660156 -144.847656 30.867188 -145.265625 30.109375 -145.609375 C 29.359375 -145.953125 28.773438 -146.265625 28.359375 -146.546875 C 26.566406 -147.234375 24.875 -147.679688 23.28125 -147.890625 C 21.695312 -148.097656 20.28125 -148.441406 19.03125 -148.921875 C 17.789062 -149.398438 16.828125 -150.15625 16.140625 -151.1875 C 15.453125 -152.226562 15.109375 -153.988281 15.109375 -156.46875 L 15.109375 -158.953125 C 15.109375 -159.503906 15.175781 -160.128906 15.3125 -160.828125 C 15.445312 -160.960938 15.859375 -161.375 16.546875 -162.0625 C 17.242188 -162.75 18.039062 -163.472656 18.9375 -164.234375 C 19.832031 -164.992188 20.625 -165.71875 21.3125 -166.40625 C 22.007812 -167.09375 22.425781 -167.578125 22.5625 -167.859375 C 22.976562 -168.128906 23.460938 -168.644531 24.015625 -169.40625 C 24.566406 -170.164062 25.117188 -170.925781 25.671875 -171.6875 C 26.222656 -172.445312 26.738281 -173.171875 27.21875 -173.859375 C 27.695312 -174.546875 28.078125 -174.960938 28.359375 -175.109375 C 31.671875 -178.691406 34.394531 -181.894531 36.53125 -184.71875 C 38.664062 -187.550781 41.1875 -189.9375 44.09375 -191.875 C 45.882812 -193.382812 47.914062 -195.140625 50.1875 -197.140625 C 52.46875 -199.140625 54.710938 -200.140625 56.921875 -200.140625 C 60.503906 -200.140625 63.257812 -199.347656 65.1875 -197.765625 C 67.125 -196.179688 68.609375 -194.179688 69.640625 -191.765625 C 70.679688 -189.347656 71.476562 -186.691406 72.03125 -183.796875 C 72.582031 -180.898438 73.269531 -178.140625 74.09375 -175.515625 L 75.953125 -175.515625 C 76.785156 -175.515625 77.582031 -175.445312 78.34375 -175.3125 C 79.101562 -175.175781 79.828125 -175.109375 80.515625 -175.109375 C 81.066406 -175.109375 81.648438 -175.175781 82.265625 -175.3125 C 82.890625 -175.445312 83.476562 -175.582031 84.03125 -175.71875 C 85.132812 -176.132812 86.171875 -176.375 87.140625 -176.4375 C 88.109375 -176.507812 89.144531 -176.546875 90.25 -176.546875 C 91.757812 -176.546875 93.34375 -176.476562 95 -176.34375 C 96.65625 -176.207031 98.3125 -176.140625 99.96875 -176.140625 C 101.757812 -176.140625 103.789062 -175.757812 106.0625 -175 C 108.34375 -174.238281 110.519531 -173.238281 112.59375 -172 C 114.664062 -170.757812 116.390625 -169.3125 117.765625 -167.65625 C 119.148438 -166 119.84375 -164.273438 119.84375 -162.484375 C 119.84375 -161.378906 119.320312 -160.132812 118.28125 -158.75 C 117.25 -157.375 115.972656 -156.0625 114.453125 -154.8125 C 112.941406 -153.570312 111.390625 -152.535156 109.796875 -151.703125 C 108.210938 -150.878906 106.800781 -150.46875 105.5625 -150.46875 L 102.65625 -150.46875 C 102.519531 -150.46875 102.109375 -150.503906 101.421875 -150.578125 C 100.734375 -150.648438 99.972656 -150.6875 99.140625 -150.6875 C 98.316406 -150.6875 97.554688 -150.6875 96.859375 -150.6875 C 96.171875 -150.6875 95.757812 -150.6875 95.625 -150.6875 L 75.953125 -150.6875 C 72.234375 -148.195312 69.613281 -145.226562 68.09375 -141.78125 C 66.851562 -138.1875 66.195312 -134.457031 66.125 -130.59375 C 66.0625 -126.738281 65.890625 -122.8125 65.609375 -118.8125 C 64.921875 -116.050781 64.265625 -113.1875 63.640625 -110.21875 C 63.023438 -107.25 62.71875 -104.175781 62.71875 -101 C 62.71875 -98.789062 62.957031 -96.546875 63.4375 -94.265625 C 63.914062 -91.992188 64.15625 -89.6875 64.15625 -87.34375 C 64.15625 -85.820312 63.84375 -84.234375 63.21875 -82.578125 C 62.601562 -80.921875 62.296875 -79.195312 62.296875 -77.40625 C 62.296875 -76.300781 62.363281 -75.472656 62.5 -74.921875 C 62.5 -74.367188 62.570312 -73.890625 62.71875 -73.484375 C 62.71875 -73.066406 62.851562 -72.335938 63.125 -71.296875 C 63.40625 -70.265625 63.75 -69.195312 64.15625 -68.09375 C 64.570312 -66.988281 64.914062 -65.914062 65.1875 -64.875 C 65.46875 -63.84375 65.609375 -63.191406 65.609375 -62.921875 C 65.609375 -62.640625 65.742188 -61.707031 66.015625 -60.125 C 66.296875 -58.539062 66.609375 -56.847656 66.953125 -55.046875 C 67.296875 -53.253906 67.570312 -51.597656 67.78125 -50.078125 C 67.988281 -48.566406 68.09375 -47.601562 68.09375 -47.1875 C 68.375 -46.21875 68.613281 -45.113281 68.8125 -43.875 C 69.019531 -42.632812 69.332031 -41.394531 69.75 -40.15625 C 70.164062 -38.914062 70.71875 -37.773438 71.40625 -36.734375 C 72.09375 -35.703125 72.988281 -34.910156 74.09375 -34.359375 C 74.644531 -34.222656 75.4375 -33.945312 76.46875 -33.53125 C 77.507812 -33.113281 78.546875 -32.660156 79.578125 -32.171875 C 80.617188 -31.691406 81.585938 -31.242188 82.484375 -30.828125 C 83.378906 -30.421875 83.894531 -30.148438 84.03125 -30.015625 L 101.421875 -30.015625 C 103.210938 -30.972656 104.898438 -31.96875 106.484375 -33 C 108.078125 -34.039062 109.703125 -35.007812 111.359375 -35.90625 C 113.015625 -36.800781 114.738281 -37.5625 116.53125 -38.1875 C 118.320312 -38.8125 120.320312 -39.125 122.53125 -39.125 C 124.601562 -39.125 125.878906 -38.328125 126.359375 -36.734375 C 126.835938 -35.148438 127.078125 -33.390625 127.078125 -31.453125 L 127.078125 -28.5625 C 127.078125 -22.90625 125.285156 -18.144531 121.703125 -14.28125 C 118.117188 -10.414062 113.738281 -7.3125 108.5625 -4.96875 C 103.382812 -2.625 97.929688 -0.96875 92.203125 0 C 86.484375 0.96875 81.414062 1.453125 77 1.453125 C 75.34375 1.453125 73.515625 1.414062 71.515625 1.34375 C 69.515625 1.269531 67.441406 1.0625 65.296875 0.71875 C 63.160156 0.375 61.054688 -0.101562 58.984375 -0.71875 C 56.921875 -1.34375 55.128906 -2.207031 53.609375 -3.3125 L 48.21875 -8.6875 C 45.050781 -12.414062 41.878906 -16.210938 38.703125 -20.078125 C 35.523438 -23.941406 32.972656 -28.21875 31.046875 -32.90625 Z M 31.046875 -32.90625 "/></g></g></g><g fill="#000000" fill-opacity="1"><g transform="translate(534.22303, 386.716475)"><g><path d="M 54.234375 -86.3125 C 54.234375 -79.132812 55.472656 -72.40625 57.953125 -66.125 C 60.429688 -59.851562 63.46875 -53.539062 67.0625 -47.1875 C 68.03125 -45.53125 68.789062 -43.910156 69.34375 -42.328125 C 69.894531 -40.742188 70.515625 -39.222656 71.203125 -37.765625 C 71.890625 -36.316406 72.75 -34.972656 73.78125 -33.734375 C 74.820312 -32.492188 76.304688 -31.390625 78.234375 -30.421875 C 78.515625 -30.285156 79.03125 -30.078125 79.78125 -29.796875 C 80.539062 -29.523438 81.300781 -29.179688 82.0625 -28.765625 C 82.820312 -28.359375 83.546875 -28.015625 84.234375 -27.734375 C 84.929688 -27.460938 85.28125 -27.253906 85.28125 -27.109375 C 86.65625 -26.285156 87.828125 -25.320312 88.796875 -24.21875 C 89.765625 -23.113281 90.765625 -22.078125 91.796875 -21.109375 C 92.828125 -20.140625 93.925781 -19.3125 95.09375 -18.625 C 96.269531 -17.9375 97.6875 -17.59375 99.34375 -17.59375 C 103.488281 -17.59375 107.390625 -18.488281 111.046875 -20.28125 C 114.703125 -22.070312 118.148438 -24.347656 121.390625 -27.109375 C 124.628906 -29.867188 127.695312 -32.800781 130.59375 -35.90625 C 133.5 -39.007812 136.191406 -41.941406 138.671875 -44.703125 C 139.640625 -48.148438 140.8125 -50.875 142.1875 -52.875 C 143.570312 -54.882812 144.816406 -57.40625 145.921875 -60.4375 C 147.441406 -64.4375 148.335938 -68.195312 148.609375 -71.71875 C 148.890625 -75.238281 149.03125 -79 149.03125 -83 C 149.03125 -90.03125 148.375 -97.238281 147.0625 -104.625 C 145.75 -112.007812 143.78125 -119.1875 141.15625 -126.15625 C 138.53125 -133.125 135.21875 -139.742188 131.21875 -146.015625 C 127.21875 -152.296875 122.53125 -157.785156 117.15625 -162.484375 C 116.457031 -162.484375 115.070312 -162.550781 113 -162.6875 C 110.9375 -162.820312 109.5625 -162.890625 108.875 -162.890625 C 102.382812 -162.890625 96.171875 -161.851562 90.234375 -159.78125 C 84.304688 -157.71875 79.476562 -153.859375 75.75 -148.203125 C 75.0625 -147.503906 74.164062 -146.394531 73.0625 -144.875 C 71.957031 -143.363281 71.269531 -142.46875 71 -142.1875 C 70.71875 -142.1875 69.988281 -141.804688 68.8125 -141.046875 C 67.644531 -140.296875 67.0625 -139.847656 67.0625 -139.703125 C 66.507812 -139.148438 65.882812 -138.359375 65.1875 -137.328125 C 64.5 -136.296875 64.019531 -135.503906 63.75 -134.953125 C 63.75 -134.816406 63.710938 -134.265625 63.640625 -133.296875 C 63.578125 -132.328125 63.472656 -131.289062 63.328125 -130.1875 C 63.191406 -129.082031 63.054688 -128.007812 62.921875 -126.96875 C 62.785156 -125.9375 62.644531 -125.351562 62.5 -125.21875 C 62.5 -124.664062 62.050781 -123.664062 61.15625 -122.21875 C 60.257812 -120.769531 59.8125 -119.910156 59.8125 -119.640625 C 58.988281 -117.835938 58.40625 -115.898438 58.0625 -113.828125 C 57.71875 -111.765625 57.269531 -109.765625 56.71875 -107.828125 C 56.570312 -106.867188 56.359375 -105.421875 56.078125 -103.484375 C 55.804688 -101.554688 55.53125 -99.625 55.25 -97.6875 C 54.976562 -95.757812 54.738281 -94 54.53125 -92.40625 C 54.332031 -90.820312 54.234375 -89.828125 54.234375 -89.421875 Z M 81.34375 1.453125 C 79.957031 0.617188 78.398438 0 76.671875 -0.40625 C 74.953125 -0.820312 73.226562 -1.203125 71.5 -1.546875 C 69.78125 -1.890625 68.125 -2.269531 66.53125 -2.6875 C 64.945312 -3.101562 63.601562 -3.65625 62.5 -4.34375 C 61.945312 -4.757812 60.984375 -5.484375 59.609375 -6.515625 C 58.234375 -7.554688 56.785156 -8.695312 55.265625 -9.9375 C 53.742188 -11.175781 52.289062 -12.378906 50.90625 -13.546875 C 49.53125 -14.722656 48.566406 -15.585938 48.015625 -16.140625 C 47.191406 -16.972656 45.953125 -18.179688 44.296875 -19.765625 C 42.640625 -21.347656 40.984375 -22.96875 39.328125 -24.625 C 37.671875 -26.28125 36.1875 -27.796875 34.875 -29.171875 C 33.5625 -30.554688 32.835938 -31.457031 32.703125 -31.875 C 32.566406 -31.875 32.148438 -32.457031 31.453125 -33.625 C 30.765625 -34.800781 29.9375 -36.21875 28.96875 -37.875 C 28.007812 -39.53125 27.046875 -41.21875 26.078125 -42.9375 C 25.109375 -44.664062 24.347656 -46.082031 23.796875 -47.1875 C 23.109375 -48.570312 22.242188 -50.265625 21.203125 -52.265625 C 20.171875 -54.265625 19.207031 -56.296875 18.3125 -58.359375 C 17.414062 -60.429688 16.65625 -62.46875 16.03125 -64.46875 C 15.414062 -66.46875 15.109375 -68.160156 15.109375 -69.546875 L 15.109375 -105.359375 C 16.210938 -108.390625 17.144531 -111.5625 17.90625 -114.875 C 18.664062 -118.1875 19.179688 -121.632812 19.453125 -125.21875 C 19.867188 -126.050781 20.59375 -127.5 21.625 -129.5625 C 22.664062 -131.632812 23.804688 -133.804688 25.046875 -136.078125 C 26.285156 -138.359375 27.457031 -140.5 28.5625 -142.5 C 29.664062 -144.5 30.425781 -145.914062 30.84375 -146.75 C 32.90625 -150.195312 35.210938 -153.226562 37.765625 -155.84375 C 40.328125 -158.46875 43.054688 -160.816406 45.953125 -162.890625 C 48.847656 -164.960938 51.914062 -166.859375 55.15625 -168.578125 C 58.40625 -170.304688 61.753906 -172.132812 65.203125 -174.0625 C 68.785156 -175.863281 72.816406 -177.175781 77.296875 -178 C 81.785156 -178.832031 86.03125 -179.867188 90.03125 -181.109375 C 91.550781 -181.796875 93 -182.519531 94.375 -183.28125 C 95.757812 -184.039062 97.414062 -184.421875 99.34375 -184.421875 C 99.488281 -184.421875 99.800781 -184.421875 100.28125 -184.421875 C 100.757812 -184.421875 101.140625 -184.28125 101.421875 -184 C 101.691406 -184 102.617188 -183.753906 104.203125 -183.265625 C 105.796875 -182.785156 106.800781 -182.546875 107.21875 -182.546875 L 117.15625 -182.546875 C 119.082031 -182.546875 120.703125 -182.164062 122.015625 -181.40625 C 123.328125 -180.65625 124.535156 -179.863281 125.640625 -179.03125 C 126.742188 -178.207031 127.847656 -177.414062 128.953125 -176.65625 C 130.054688 -175.894531 131.363281 -175.515625 132.875 -175.515625 L 145.921875 -175.515625 C 146.054688 -175.515625 146.429688 -175.304688 147.046875 -174.890625 C 147.671875 -174.484375 148.296875 -174.035156 148.921875 -173.546875 C 149.546875 -173.066406 150.128906 -172.617188 150.671875 -172.203125 C 151.222656 -171.785156 151.5 -171.578125 151.5 -171.578125 C 151.78125 -171.171875 152.332031 -170.828125 153.15625 -170.546875 C 153.988281 -170.273438 154.539062 -170 154.8125 -169.71875 C 155.09375 -169.71875 156.195312 -169.546875 158.125 -169.203125 C 160.0625 -168.859375 161.304688 -168.546875 161.859375 -168.265625 C 162.828125 -167.859375 163.550781 -167.273438 164.03125 -166.515625 C 164.507812 -165.753906 164.851562 -164.957031 165.0625 -164.125 C 165.269531 -163.300781 165.507812 -162.507812 165.78125 -161.75 C 166.0625 -160.988281 166.546875 -160.332031 167.234375 -159.78125 C 167.367188 -159.644531 167.75 -159.367188 168.375 -158.953125 C 169 -158.546875 169.617188 -158.097656 170.234375 -157.609375 C 170.859375 -157.128906 171.445312 -156.679688 172 -156.265625 C 172.550781 -155.847656 172.894531 -155.570312 173.03125 -155.4375 C 173.3125 -155.4375 173.625 -155.265625 173.96875 -154.921875 C 174.3125 -154.578125 174.484375 -154.265625 174.484375 -153.984375 C 175.304688 -153.160156 176.304688 -152.128906 177.484375 -150.890625 C 178.660156 -149.648438 179.796875 -148.40625 180.890625 -147.15625 C 181.992188 -145.914062 182.925781 -144.8125 183.6875 -143.84375 C 184.445312 -142.882812 184.828125 -142.332031 184.828125 -142.1875 C 184.960938 -142.050781 185.066406 -141.566406 185.140625 -140.734375 C 185.210938 -139.910156 185.316406 -139.015625 185.453125 -138.046875 C 185.585938 -137.085938 185.6875 -136.191406 185.75 -135.359375 C 185.820312 -134.535156 185.859375 -134.054688 185.859375 -133.921875 C 186.003906 -133.503906 186.316406 -132.640625 186.796875 -131.328125 C 187.273438 -130.015625 187.753906 -128.664062 188.234375 -127.28125 C 188.722656 -125.90625 189.175781 -124.5625 189.59375 -123.25 C 190.007812 -121.9375 190.351562 -121.078125 190.625 -120.671875 L 190.625 -79.0625 C 190.625 -78.644531 190.519531 -77.847656 190.3125 -76.671875 C 190.101562 -75.503906 189.828125 -74.160156 189.484375 -72.640625 C 189.140625 -71.128906 188.757812 -69.648438 188.34375 -68.203125 C 187.9375 -66.753906 187.59375 -65.613281 187.3125 -64.78125 C 187.3125 -64.507812 186.96875 -63.546875 186.28125 -61.890625 C 185.59375 -60.234375 185.109375 -59.265625 184.828125 -58.984375 C 184.003906 -56.640625 183.414062 -54.15625 183.0625 -51.53125 C 182.71875 -48.914062 181.789062 -46.640625 180.28125 -44.703125 C 180.28125 -44.566406 179.863281 -44.085938 179.03125 -43.265625 C 178.625 -42.847656 178.210938 -42.363281 177.796875 -41.8125 C 175.585938 -39.050781 173.6875 -35.804688 172.09375 -32.078125 C 170.507812 -28.359375 168.476562 -25.394531 166 -23.1875 C 163.375 -20.695312 160.4375 -18.660156 157.1875 -17.078125 C 153.945312 -15.492188 151.226562 -13.597656 149.03125 -11.390625 C 148.75 -11.390625 148.265625 -11.039062 147.578125 -10.34375 C 146.890625 -9.65625 146.164062 -8.894531 145.40625 -8.0625 C 144.644531 -7.238281 143.914062 -6.445312 143.21875 -5.6875 C 142.53125 -4.925781 142.117188 -4.476562 141.984375 -4.34375 C 141.566406 -4.207031 140.769531 -3.929688 139.59375 -3.515625 C 138.425781 -3.097656 137.148438 -2.648438 135.765625 -2.171875 C 134.390625 -1.691406 133.046875 -1.242188 131.734375 -0.828125 C 130.429688 -0.410156 129.429688 -0.132812 128.734375 0 C 128.460938 0 127.53125 0.101562 125.9375 0.3125 C 124.351562 0.519531 122.5625 0.796875 120.5625 1.140625 C 118.5625 1.484375 116.5625 1.828125 114.5625 2.171875 C 112.5625 2.515625 111.078125 2.753906 110.109375 2.890625 L 107.21875 2.890625 C 106.25 2.890625 104.519531 2.820312 102.03125 2.6875 C 99.550781 2.550781 96.929688 2.378906 94.171875 2.171875 C 91.410156 1.960938 88.820312 1.789062 86.40625 1.65625 C 84 1.519531 82.3125 1.453125 81.34375 1.453125 Z M 81.34375 1.453125 "/></g></g></g><g fill="#000000" fill-opacity="1"><g transform="translate(770.934046, 386.716475)"><g><path d="M 49.875 -1.859375 L 48.4375 -1.859375 C 43.601562 -0.890625 38.703125 -0.0976562 33.734375 0.515625 C 28.765625 1.140625 23.726562 1.453125 18.625 1.453125 C 14.625 1.453125 11.484375 0.625 9.203125 -1.03125 C 6.929688 -2.6875 4.757812 -5.3125 2.6875 -8.90625 C 2 -9.863281 1.582031 -10.550781 1.4375 -10.96875 C 1.300781 -11.382812 1.234375 -12.144531 1.234375 -13.25 C 1.234375 -14.351562 1.644531 -15.382812 2.46875 -16.34375 C 3.300781 -17.3125 4.304688 -18.207031 5.484375 -19.03125 C 6.660156 -19.863281 7.898438 -20.519531 9.203125 -21 C 10.515625 -21.488281 11.65625 -21.800781 12.625 -21.9375 L 29.8125 -21.9375 C 30.351562 -21.9375 31.175781 -22.316406 32.28125 -23.078125 C 33.382812 -23.835938 34.554688 -24.664062 35.796875 -25.5625 C 37.046875 -26.457031 38.1875 -27.390625 39.21875 -28.359375 C 40.257812 -29.328125 40.914062 -30.015625 41.1875 -30.421875 C 41.46875 -30.554688 41.78125 -31.035156 42.125 -31.859375 C 42.46875 -32.691406 42.773438 -33.59375 43.046875 -34.5625 C 43.328125 -35.53125 43.570312 -36.425781 43.78125 -37.25 C 43.988281 -38.082031 44.09375 -38.707031 44.09375 -39.125 C 43.945312 -41.1875 43.804688 -43.320312 43.671875 -45.53125 C 43.535156 -47.738281 43.46875 -50.015625 43.46875 -52.359375 C 43.46875 -60.367188 43.8125 -68.441406 44.5 -76.578125 C 45.1875 -84.722656 45.53125 -92.726562 45.53125 -100.59375 L 45.53125 -114.875 C 45.664062 -115.289062 45.800781 -116.1875 45.9375 -117.5625 C 46.082031 -118.945312 46.222656 -120.460938 46.359375 -122.109375 C 46.492188 -123.765625 46.628906 -125.28125 46.765625 -126.65625 C 46.910156 -128.039062 47.117188 -128.941406 47.390625 -129.359375 L 47.390625 -132.46875 C 47.390625 -135.226562 47.078125 -137.953125 46.453125 -140.640625 C 45.835938 -143.328125 45.53125 -146.125 45.53125 -149.03125 C 45.53125 -150.957031 45.632812 -152.472656 45.84375 -153.578125 C 46.050781 -154.679688 46.914062 -156.128906 48.4375 -157.921875 C 48.15625 -158.890625 48.015625 -160.578125 48.015625 -162.984375 C 48.015625 -165.398438 48.015625 -167.988281 48.015625 -170.75 C 48.015625 -173.507812 48.015625 -176.128906 48.015625 -178.609375 C 48.015625 -181.097656 48.15625 -182.894531 48.4375 -184 C 48.4375 -184.28125 48.675781 -185.175781 49.15625 -186.6875 C 49.632812 -188.207031 49.875 -189.242188 49.875 -189.796875 L 49.875 -191.875 C 49.875 -192.976562 49.804688 -193.976562 49.671875 -194.875 C 49.535156 -195.769531 49.125 -196.90625 48.4375 -198.28125 L 48.4375 -227.0625 C 48.289062 -227.332031 48.078125 -227.847656 47.796875 -228.609375 C 47.523438 -229.367188 47.25 -230.195312 46.96875 -231.09375 C 46.695312 -231.988281 46.421875 -232.847656 46.140625 -233.671875 C 45.867188 -234.503906 45.664062 -235.054688 45.53125 -235.328125 L 45.53125 -237.8125 C 45.53125 -240.570312 45.835938 -243.296875 46.453125 -245.984375 C 47.078125 -248.679688 47.390625 -251.410156 47.390625 -254.171875 C 47.390625 -257.617188 47.078125 -260.34375 46.453125 -262.34375 C 45.835938 -264.34375 45.050781 -266.863281 44.09375 -269.90625 C 43.257812 -273.207031 42.289062 -275.617188 41.1875 -277.140625 C 40.082031 -278.660156 37.738281 -279.628906 34.15625 -280.046875 C 33.457031 -280.046875 32.316406 -280.113281 30.734375 -280.25 C 29.148438 -280.382812 27.425781 -280.554688 25.5625 -280.765625 C 23.695312 -280.972656 21.9375 -281.144531 20.28125 -281.28125 C 18.625 -281.414062 17.519531 -281.484375 16.96875 -281.484375 C 16.414062 -281.765625 15.414062 -282.628906 13.96875 -284.078125 C 12.519531 -285.523438 11.453125 -286.523438 10.765625 -287.078125 L 10.765625 -293.28125 C 11.179688 -293.5625 11.972656 -294.148438 13.140625 -295.046875 C 14.316406 -295.941406 15.523438 -296.90625 16.765625 -297.9375 C 18.003906 -298.976562 19.175781 -299.976562 20.28125 -300.9375 C 21.382812 -301.90625 22.144531 -302.597656 22.5625 -303.015625 C 22.832031 -303.148438 23.378906 -303.390625 24.203125 -303.734375 C 25.035156 -304.078125 25.59375 -304.25 25.875 -304.25 C 26.144531 -304.394531 26.96875 -304.5 28.34375 -304.5625 C 29.726562 -304.632812 31.25 -304.738281 32.90625 -304.875 C 34.5625 -305.007812 36.078125 -305.144531 37.453125 -305.28125 C 38.835938 -305.425781 39.738281 -305.566406 40.15625 -305.703125 C 40.289062 -305.835938 40.84375 -306.25 41.8125 -306.9375 C 42.78125 -307.632812 43.847656 -308.429688 45.015625 -309.328125 C 46.191406 -310.222656 47.226562 -311.050781 48.125 -311.8125 C 49.019531 -312.570312 49.601562 -313.085938 49.875 -313.359375 C 50.15625 -313.359375 50.707031 -313.394531 51.53125 -313.46875 C 52.363281 -313.539062 53.226562 -313.644531 54.125 -313.78125 C 55.019531 -313.914062 55.878906 -314.050781 56.703125 -314.1875 C 57.535156 -314.332031 58.09375 -314.539062 58.375 -314.8125 C 58.78125 -314.8125 59.535156 -315.117188 60.640625 -315.734375 C 61.742188 -316.359375 62.953125 -316.976562 64.265625 -317.59375 C 65.578125 -318.21875 66.785156 -318.84375 67.890625 -319.46875 C 68.992188 -320.09375 69.679688 -320.40625 69.953125 -320.40625 L 71.609375 -320.40625 C 74.234375 -320.40625 76.097656 -319.78125 77.203125 -318.53125 C 78.304688 -317.289062 79.820312 -316.050781 81.75 -314.8125 C 82.582031 -314.125 83.550781 -313.535156 84.65625 -313.046875 C 85.757812 -312.566406 86.828125 -311.984375 87.859375 -311.296875 C 88.898438 -310.609375 89.765625 -309.78125 90.453125 -308.8125 C 91.140625 -307.84375 91.484375 -306.597656 91.484375 -305.078125 L 91.484375 -304.25 C 90.515625 -299.695312 89.546875 -295.003906 88.578125 -290.171875 C 87.617188 -285.347656 87.140625 -280.519531 87.140625 -275.6875 C 87.140625 -273.894531 87.445312 -272.101562 88.0625 -270.3125 C 88.6875 -268.519531 89 -266.726562 89 -264.9375 L 89 -263.890625 C 88.726562 -263.617188 88.414062 -262.960938 88.0625 -261.921875 C 87.71875 -260.890625 87.410156 -260.238281 87.140625 -259.96875 L 87.140625 -219.8125 C 87.140625 -219.53125 87.066406 -219.046875 86.921875 -218.359375 C 86.785156 -217.671875 86.613281 -216.945312 86.40625 -216.1875 C 86.207031 -215.425781 86.035156 -214.703125 85.890625 -214.015625 C 85.753906 -213.328125 85.6875 -212.910156 85.6875 -212.765625 C 85.6875 -212.078125 85.648438 -210.351562 85.578125 -207.59375 C 85.515625 -204.832031 85.410156 -201.898438 85.265625 -198.796875 C 85.128906 -195.691406 84.957031 -192.796875 84.75 -190.109375 C 84.550781 -187.421875 84.378906 -185.726562 84.234375 -185.03125 C 84.234375 -184.894531 84.0625 -184.066406 83.71875 -182.546875 C 83.375 -181.035156 83.203125 -180.003906 83.203125 -179.453125 L 83.203125 -152.125 C 83.203125 -151.851562 83.132812 -151.164062 83 -150.0625 C 82.863281 -148.957031 82.691406 -147.78125 82.484375 -146.53125 C 82.273438 -145.289062 82.097656 -144.117188 81.953125 -143.015625 C 81.816406 -141.910156 81.75 -141.289062 81.75 -141.15625 C 81.75 -140.738281 81.679688 -140.113281 81.546875 -139.28125 C 81.410156 -138.457031 81.34375 -137.84375 81.34375 -137.4375 C 81.34375 -132.46875 81.648438 -127.53125 82.265625 -122.625 C 82.890625 -117.726562 83.203125 -112.796875 83.203125 -107.828125 L 83.203125 -102.046875 C 83.203125 -101.765625 83.0625 -101.28125 82.78125 -100.59375 C 82.507812 -99.90625 82.164062 -99.144531 81.75 -98.3125 C 81.34375 -97.488281 80.960938 -96.726562 80.609375 -96.03125 C 80.265625 -95.34375 80.023438 -94.929688 79.890625 -94.796875 C 79.890625 -94.242188 79.820312 -92.929688 79.6875 -90.859375 C 79.550781 -88.796875 79.410156 -86.554688 79.265625 -84.140625 C 79.128906 -81.722656 78.992188 -79.476562 78.859375 -77.40625 C 78.722656 -75.34375 78.582031 -74.035156 78.4375 -73.484375 C 78.4375 -73.203125 78.367188 -72.679688 78.234375 -71.921875 C 78.097656 -71.160156 77.925781 -70.398438 77.71875 -69.640625 C 77.507812 -68.890625 77.335938 -68.164062 77.203125 -67.46875 C 77.066406 -66.78125 77 -66.367188 77 -66.234375 L 77 -64.15625 C 77 -60.707031 77.34375 -57.394531 78.03125 -54.21875 C 78.71875 -51.050781 79.335938 -47.878906 79.890625 -44.703125 C 80.023438 -44.429688 80.160156 -43.773438 80.296875 -42.734375 C 80.441406 -41.703125 80.617188 -40.632812 80.828125 -39.53125 C 81.035156 -38.425781 81.207031 -37.351562 81.34375 -36.3125 C 81.476562 -35.28125 81.613281 -34.628906 81.75 -34.359375 C 82.03125 -33.671875 82.6875 -32.671875 83.71875 -31.359375 C 84.757812 -30.046875 85.414062 -29.390625 85.6875 -29.390625 L 111.765625 -29.390625 C 112.046875 -29.390625 113.082031 -28.972656 114.875 -28.140625 C 116.664062 -27.316406 118.046875 -26.5625 119.015625 -25.875 C 119.285156 -25.875 119.523438 -25.734375 119.734375 -25.453125 C 119.941406 -25.179688 120.046875 -24.90625 120.046875 -24.625 C 120.328125 -24.21875 120.707031 -23.632812 121.1875 -22.875 C 121.664062 -22.113281 122.144531 -21.285156 122.625 -20.390625 C 123.113281 -19.492188 123.5625 -18.664062 123.96875 -17.90625 C 124.382812 -17.144531 124.664062 -16.554688 124.8125 -16.140625 L 124.8125 -15.109375 C 124.8125 -14.421875 124.773438 -13.488281 124.703125 -12.3125 C 124.628906 -11.144531 124.453125 -9.972656 124.171875 -8.796875 C 123.898438 -7.617188 123.453125 -6.515625 122.828125 -5.484375 C 122.210938 -4.453125 121.285156 -3.726562 120.046875 -3.3125 C 114.660156 -2.625 109.101562 -1.898438 103.375 -1.140625 C 97.65625 -0.378906 91.898438 0 86.109375 0 C 84.722656 0 83.507812 -0.171875 82.46875 -0.515625 C 81.4375 -0.859375 80.472656 -1.238281 79.578125 -1.65625 C 78.679688 -2.070312 77.75 -2.453125 76.78125 -2.796875 C 75.820312 -3.140625 74.722656 -3.3125 73.484375 -3.3125 C 72.378906 -3.3125 71.410156 -3 70.578125 -2.375 C 69.753906 -1.757812 68.925781 -1.035156 68.09375 -0.203125 C 67.269531 0.617188 66.40625 1.335938 65.5 1.953125 C 64.601562 2.578125 63.601562 2.890625 62.5 2.890625 C 61.394531 2.890625 60.359375 2.648438 59.390625 2.171875 C 58.429688 1.691406 57.429688 1.140625 56.390625 0.515625 C 55.359375 -0.0976562 54.328125 -0.644531 53.296875 -1.125 C 52.265625 -1.613281 51.125 -1.859375 49.875 -1.859375 Z M 49.875 -1.859375 "/></g></g></g><g fill="#000000" fill-opacity="1"><g transform="translate(930.441973, 386.716475)"><g><path d="M 54.015625 -52.578125 C 54.015625 -49.671875 55.015625 -47.425781 57.015625 -45.84375 C 59.023438 -44.257812 61.40625 -43.050781 64.15625 -42.21875 C 66.914062 -41.394531 69.8125 -40.8125 72.84375 -40.46875 C 75.882812 -40.125 78.375 -39.675781 80.3125 -39.125 L 80.515625 -39.125 C 83.273438 -39.125 86.171875 -39.984375 89.203125 -41.703125 C 92.242188 -43.429688 94.382812 -45.257812 95.625 -47.1875 C 96.039062 -47.875 96.59375 -48.835938 97.28125 -50.078125 C 97.96875 -51.328125 98.617188 -52.570312 99.234375 -53.8125 C 99.859375 -55.050781 100.410156 -56.15625 100.890625 -57.125 C 101.378906 -58.09375 101.625 -58.710938 101.625 -58.984375 L 101.625 -86.3125 L 100.390625 -89.203125 C 100.109375 -89.203125 99.519531 -89.238281 98.625 -89.3125 C 97.726562 -89.382812 97.070312 -89.421875 96.65625 -89.421875 C 92.925781 -89.421875 89.472656 -88.488281 86.296875 -86.625 C 83.128906 -84.757812 80.03125 -82.722656 77 -80.515625 C 76.300781 -80.097656 75.332031 -79.441406 74.09375 -78.546875 C 72.851562 -77.648438 71.644531 -76.71875 70.46875 -75.75 C 69.300781 -74.789062 68.269531 -73.929688 67.375 -73.171875 C 66.476562 -72.410156 65.957031 -72.03125 65.8125 -72.03125 C 65.675781 -71.894531 65.332031 -71.476562 64.78125 -70.78125 C 64.226562 -70.09375 63.640625 -69.300781 63.015625 -68.40625 C 62.398438 -67.507812 61.816406 -66.578125 61.265625 -65.609375 C 60.710938 -64.640625 60.226562 -63.878906 59.8125 -63.328125 C 59.539062 -63.054688 59.300781 -62.570312 59.09375 -61.875 C 58.882812 -61.1875 58.78125 -60.707031 58.78125 -60.4375 C 58.507812 -60.300781 58.128906 -59.957031 57.640625 -59.40625 C 57.160156 -58.851562 56.675781 -58.265625 56.1875 -57.640625 C 55.707031 -57.023438 55.257812 -56.40625 54.84375 -55.78125 C 54.4375 -55.15625 54.160156 -54.707031 54.015625 -54.4375 Z M 98.109375 -21.9375 C 96.867188 -21.9375 95.695312 -21.59375 94.59375 -20.90625 C 93.488281 -20.21875 92.414062 -19.390625 91.375 -18.421875 C 90.34375 -17.453125 89.378906 -16.453125 88.484375 -15.421875 C 87.585938 -14.390625 86.722656 -13.523438 85.890625 -12.828125 C 85.753906 -12.828125 85.34375 -12.6875 84.65625 -12.40625 C 83.96875 -12.132812 83.347656 -11.796875 82.796875 -11.390625 C 80.304688 -10.421875 77.890625 -9.28125 75.546875 -7.96875 C 73.203125 -6.65625 70.851562 -5.410156 68.5 -4.234375 C 66.15625 -3.066406 63.707031 -2.066406 61.15625 -1.234375 C 58.601562 -0.410156 56.019531 0 53.40625 0 L 46.984375 0 C 46.703125 -0.269531 45.972656 -0.578125 44.796875 -0.921875 C 43.628906 -1.273438 42.910156 -1.585938 42.640625 -1.859375 C 42.503906 -1.859375 42.085938 -1.890625 41.390625 -1.953125 C 40.703125 -2.023438 39.941406 -2.128906 39.109375 -2.265625 C 38.285156 -2.410156 37.492188 -2.550781 36.734375 -2.6875 C 35.972656 -2.820312 35.523438 -3.03125 35.390625 -3.3125 C 34.703125 -3.445312 33.597656 -3.648438 32.078125 -3.921875 C 30.566406 -4.203125 29.671875 -4.34375 29.390625 -4.34375 C 27.734375 -5.445312 25.9375 -7.3125 24 -9.9375 C 22.070312 -12.5625 20.28125 -15.457031 18.625 -18.625 C 16.96875 -21.800781 15.550781 -24.972656 14.375 -28.140625 C 13.207031 -31.316406 12.625 -34.007812 12.625 -36.21875 C 12.625 -39.394531 13.175781 -42.5 14.28125 -45.53125 C 15.382812 -48.570312 16.210938 -51.539062 16.765625 -54.4375 C 20.898438 -60.644531 24.96875 -66.023438 28.96875 -70.578125 C 32.976562 -75.128906 38.15625 -79.269531 44.5 -83 C 44.5 -83.132812 44.84375 -83.375 45.53125 -83.71875 C 46.21875 -84.0625 46.941406 -84.40625 47.703125 -84.75 C 48.460938 -85.101562 49.222656 -85.414062 49.984375 -85.6875 C 50.742188 -85.96875 51.257812 -86.175781 51.53125 -86.3125 C 52.914062 -87 54.363281 -87.925781 55.875 -89.09375 C 57.394531 -90.269531 58.914062 -91.441406 60.4375 -92.609375 C 61.957031 -93.785156 63.40625 -94.820312 64.78125 -95.71875 C 66.164062 -96.625 67.410156 -97.210938 68.515625 -97.484375 C 68.785156 -97.617188 69.503906 -97.753906 70.671875 -97.890625 C 71.847656 -98.035156 73.09375 -98.175781 74.40625 -98.3125 C 75.71875 -98.445312 76.925781 -98.582031 78.03125 -98.71875 C 79.132812 -98.863281 79.894531 -99.003906 80.3125 -99.140625 C 80.445312 -99.140625 81.066406 -99.625 82.171875 -100.59375 C 83.273438 -101.5625 83.960938 -102.046875 84.234375 -102.046875 C 84.648438 -102.179688 85.71875 -102.660156 87.4375 -103.484375 C 89.164062 -104.316406 90.992188 -105.210938 92.921875 -106.171875 C 94.859375 -107.140625 96.6875 -108.070312 98.40625 -108.96875 C 100.132812 -109.863281 101.207031 -110.453125 101.625 -110.734375 C 103.007812 -111.554688 104.113281 -112.726562 104.9375 -114.25 C 105.757812 -115.769531 106.34375 -117.359375 106.6875 -119.015625 C 107.039062 -120.671875 107.25 -122.328125 107.3125 -123.984375 C 107.382812 -125.640625 107.421875 -127.15625 107.421875 -128.53125 C 107.421875 -135.15625 106.554688 -141.15625 104.828125 -146.53125 C 103.109375 -151.914062 100.039062 -157.234375 95.625 -162.484375 C 95.34375 -163.171875 94.613281 -163.992188 93.4375 -164.953125 C 92.269531 -165.921875 91.550781 -166.40625 91.28125 -166.40625 L 78.859375 -166.40625 C 77.203125 -164.894531 75.269531 -163.550781 73.0625 -162.375 C 70.851562 -161.195312 69.335938 -159.710938 68.515625 -157.921875 C 66.859375 -154.890625 65.164062 -151.644531 63.4375 -148.1875 C 61.707031 -144.738281 60.5 -141.289062 59.8125 -137.84375 C 59.40625 -137.425781 58.578125 -136.769531 57.328125 -135.875 C 56.085938 -134.976562 54.8125 -134.113281 53.5 -133.28125 C 52.1875 -132.457031 50.910156 -131.664062 49.671875 -130.90625 C 48.429688 -130.15625 47.535156 -129.640625 46.984375 -129.359375 C 46.847656 -129.359375 46.429688 -129.320312 45.734375 -129.25 C 45.046875 -129.1875 44.253906 -129.15625 43.359375 -129.15625 C 42.460938 -129.15625 41.53125 -129.117188 40.5625 -129.046875 C 39.601562 -128.984375 38.847656 -128.953125 38.296875 -128.953125 C 38.015625 -128.953125 37.457031 -128.984375 36.625 -129.046875 C 35.800781 -129.117188 34.90625 -129.15625 33.9375 -129.15625 C 32.976562 -129.15625 32.082031 -129.1875 31.25 -129.25 C 30.425781 -129.320312 29.804688 -129.359375 29.390625 -129.359375 C 28.015625 -130.191406 26.566406 -131.191406 25.046875 -132.359375 C 23.523438 -133.535156 22.144531 -134.773438 20.90625 -136.078125 C 19.664062 -137.390625 18.628906 -138.835938 17.796875 -140.421875 C 16.972656 -142.015625 16.5625 -143.78125 16.5625 -145.71875 C 16.5625 -147.78125 16.800781 -149.570312 17.28125 -151.09375 C 17.757812 -152.613281 18.378906 -154.0625 19.140625 -155.4375 C 19.898438 -156.820312 20.832031 -158.164062 21.9375 -159.46875 C 23.039062 -160.78125 24.210938 -162.195312 25.453125 -163.71875 C 26.554688 -165.238281 27.421875 -166.515625 28.046875 -167.546875 C 28.671875 -168.578125 29.738281 -169.644531 31.25 -170.75 C 32.082031 -171.445312 32.84375 -171.894531 33.53125 -172.09375 C 34.21875 -172.300781 34.941406 -172.441406 35.703125 -172.515625 C 36.460938 -172.585938 37.253906 -172.691406 38.078125 -172.828125 C 38.910156 -172.960938 39.945312 -173.238281 41.1875 -173.65625 C 41.738281 -173.789062 42.976562 -174.375 44.90625 -175.40625 C 46.84375 -176.445312 48.945312 -177.550781 51.21875 -178.71875 C 53.5 -179.894531 55.601562 -181 57.53125 -182.03125 C 59.46875 -183.070312 60.710938 -183.726562 61.265625 -184 C 61.535156 -184.132812 62.082031 -184.238281 62.90625 -184.3125 C 63.738281 -184.382812 64.601562 -184.488281 65.5 -184.625 C 66.40625 -184.757812 67.269531 -184.859375 68.09375 -184.921875 C 68.925781 -184.992188 69.476562 -185.03125 69.75 -185.03125 C 73.613281 -186 77.304688 -187.273438 80.828125 -188.859375 C 84.347656 -190.453125 88.109375 -191.25 92.109375 -191.25 L 94.59375 -191.25 C 100.382812 -190.28125 106.519531 -189 113 -187.40625 C 119.488281 -185.820312 125.285156 -183.171875 130.390625 -179.453125 C 130.804688 -179.035156 131.460938 -178.445312 132.359375 -177.6875 C 133.253906 -176.925781 134.148438 -176.0625 135.046875 -175.09375 C 135.941406 -174.132812 136.734375 -173.273438 137.421875 -172.515625 C 138.117188 -171.753906 138.535156 -171.164062 138.671875 -170.75 C 138.804688 -170.613281 138.976562 -170.128906 139.1875 -169.296875 C 139.394531 -168.472656 139.566406 -167.613281 139.703125 -166.71875 C 139.847656 -165.820312 139.953125 -164.925781 140.015625 -164.03125 C 140.085938 -163.132812 140.125 -162.617188 140.125 -162.484375 C 140.125 -162.066406 140.363281 -161.234375 140.84375 -159.984375 C 141.332031 -158.742188 141.851562 -157.363281 142.40625 -155.84375 C 142.957031 -154.332031 143.472656 -152.957031 143.953125 -151.71875 C 144.429688 -150.476562 144.671875 -149.648438 144.671875 -149.234375 C 144.671875 -149.234375 144.707031 -148.054688 144.78125 -145.703125 C 144.851562 -143.359375 144.921875 -140.597656 144.984375 -137.421875 C 145.054688 -134.253906 145.160156 -131.015625 145.296875 -127.703125 C 145.429688 -124.390625 145.570312 -121.703125 145.71875 -119.640625 L 145.71875 -117.765625 C 145.4375 -117.359375 145.226562 -116.945312 145.09375 -116.53125 C 144.8125 -115.695312 144.671875 -115.144531 144.671875 -114.875 C 144.398438 -114.59375 144.09375 -113.863281 143.75 -112.6875 C 143.40625 -111.519531 143.234375 -110.867188 143.234375 -110.734375 C 143.085938 -110.316406 142.945312 -109.039062 142.8125 -106.90625 C 142.675781 -104.769531 142.535156 -102.492188 142.390625 -100.078125 C 142.253906 -97.660156 142.117188 -95.378906 141.984375 -93.234375 C 141.847656 -91.097656 141.78125 -89.753906 141.78125 -89.203125 C 141.78125 -88.796875 141.535156 -88.039062 141.046875 -86.9375 C 140.566406 -85.832031 140.257812 -85.140625 140.125 -84.859375 C 139.707031 -82.378906 139.429688 -80.207031 139.296875 -78.34375 C 139.160156 -76.476562 139.019531 -74.648438 138.875 -72.859375 C 138.738281 -71.066406 138.671875 -69.269531 138.671875 -67.46875 C 138.671875 -65.675781 138.671875 -63.609375 138.671875 -61.265625 L 138.671875 -50.5 C 138.953125 -49.8125 139.46875 -48.570312 140.21875 -46.78125 C 140.976562 -44.988281 141.5 -43.816406 141.78125 -43.265625 C 142.75 -40.910156 144.300781 -39.21875 146.4375 -38.1875 C 148.570312 -37.15625 150.984375 -36.394531 153.671875 -35.90625 C 156.367188 -35.425781 159.097656 -35.046875 161.859375 -34.765625 C 164.617188 -34.492188 167.171875 -34.046875 169.515625 -33.421875 C 171.859375 -32.804688 173.789062 -31.738281 175.3125 -30.21875 C 176.832031 -28.695312 177.59375 -26.488281 177.59375 -23.59375 C 177.59375 -21.382812 176.519531 -18.757812 174.375 -15.71875 C 172.238281 -12.6875 169.648438 -9.789062 166.609375 -7.03125 C 163.578125 -4.269531 160.40625 -1.925781 157.09375 0 C 153.78125 1.925781 150.953125 2.890625 148.609375 2.890625 L 144.671875 2.890625 C 144.398438 2.890625 143.609375 2.648438 142.296875 2.171875 C 140.984375 1.691406 140.257812 1.453125 140.125 1.453125 C 139.707031 1.304688 138.804688 1.164062 137.421875 1.03125 C 136.046875 0.894531 134.53125 0.789062 132.875 0.71875 C 131.21875 0.65625 129.695312 0.550781 128.3125 0.40625 C 126.9375 0.269531 126.046875 0.132812 125.640625 0 C 123.429688 -0.820312 121.082031 -2.441406 118.59375 -4.859375 C 116.113281 -7.273438 113.664062 -9.722656 111.25 -12.203125 C 108.832031 -14.691406 106.484375 -16.9375 104.203125 -18.9375 C 101.929688 -20.9375 99.898438 -21.9375 98.109375 -21.9375 Z M 98.109375 -21.9375 "/></g></g></g></g></g></svg>